<svg xmlns="http://www.w3.org/2000/svg" width="23.75" height="26.5" viewBox="0 0 23.75 26.5"><g transform="translate(0.75 0.75)"><path d="M205.659,16.972a.449.449,0,0,0-.446-.434h-3.474a.289.289,0,0,0-.288.291v.431a1.074,1.074,0,0,0,.2.5.868.868,0,1,1-1.418-.036.962.962,0,0,0,.207-.49v-.4a.29.29,0,0,0-.288-.291H196.43a.289.289,0,0,0-.288.291v.4a.962.962,0,0,0,.207.49.867.867,0,1,1-1.418.036,1.048,1.048,0,0,0,.2-.5v-.431a.29.29,0,0,0-.288-.291h-3.472a.449.449,0,0,0-.446.434l-.528,17.594a.418.418,0,0,0,.421.434h14.954a.418.418,0,0,0,.421-.434Zm-10.026,1.444a.217.217,0,0,0,.217-.217V12.878a2.439,2.439,0,1,1,4.878,0V18.2a.217.217,0,0,0,.434,0V12.878a2.872,2.872,0,1,0-5.745,0V18.2A.217.217,0,0,0,195.634,18.416Z" transform="translate(-190.391 -10)" fill="none" stroke="#fff" stroke-width="1.5"/><circle cx="5" cy="5" r="5" transform="translate(12.999 1)" fill="#d81401"/><path d="M.357.933H4.334V.441H1.249c1.175-.867,2.9-2.276,2.9-3.8A1.646,1.646,0,0,0,2.341-5.1,1.854,1.854,0,0,0,.407-3.152H.974c.05-.834.484-1.451,1.367-1.451A1.116,1.116,0,0,1,3.567-3.336C3.567-2.06,2.074-.768.357.516Z" transform="translate(15.642 8.103)" fill="#fff"/></g></svg>