<svg xmlns="http://www.w3.org/2000/svg" width="23" height="32.413" viewBox="0 0 23 32.413"><g transform="translate(17157 -14779.393)"><path d="M210.186,19.039a.583.583,0,0,0-.579-.562h-4.5a.374.374,0,0,0-.374.377v.559a1.393,1.393,0,0,0,.255.648,1.125,1.125,0,1,1-1.839-.046,1.247,1.247,0,0,0,.268-.635v-.523a.376.376,0,0,0-.374-.377H198.22a.374.374,0,0,0-.374.377v.523a1.247,1.247,0,0,0,.268.635,1.124,1.124,0,1,1-1.839.046,1.359,1.359,0,0,0,.255-.648v-.559a.376.376,0,0,0-.374-.377h-4.5a.583.583,0,0,0-.579.562l-.685,22.811a.542.542,0,0,0,.546.562h19.388a.542.542,0,0,0,.546-.562Zm-13,1.872a.281.281,0,0,0,.281-.281v-6.9a3.162,3.162,0,1,1,6.324,0v6.9a.281.281,0,0,0,.562,0v-6.9a3.724,3.724,0,1,0-7.448,0v6.9A.281.281,0,0,0,197.188,20.911Z" transform="translate(-17347.391 14769.393)" fill="#fff"/><circle cx="5" cy="5" r="5" transform="translate(-17144 14780.393)" fill="#d81401"/></g></svg>