<svg xmlns="http://www.w3.org/2000/svg" width="13" height="13" viewBox="0 0 13 13"><path d="M6.793,13H6.207a17.738,17.738,0,0,1-2.1-.071,2.453,2.453,0,0,1-1.446-.6,2.456,2.456,0,0,1-.7-1.4,17.449,17.449,0,0,1-.21-2.065l0-.023,0-.035L1.365,3H.5a.5.5,0,1,1,0-1H3.473l.248-.746,0-.011,0-.011a5.486,5.486,0,0,1,.2-.541A1.168,1.168,0,0,1,4.3.221a1.169,1.169,0,0,1,.563-.2A5.444,5.444,0,0,1,5.438,0H7.563A5.444,5.444,0,0,1,8.14.019a1.173,1.173,0,0,1,.563.2A1.136,1.136,0,0,1,9.07.69a5.26,5.26,0,0,1,.2.541l.007.023L9.527,2H12.5a.5.5,0,0,1,0,1h-.866l-.386,5.8,0,.035a17.519,17.519,0,0,1-.211,2.088,2.452,2.452,0,0,1-.7,1.4,2.453,2.453,0,0,1-1.446.6A17.726,17.726,0,0,1,6.793,13ZM2.368,3,2.75,8.733a17.028,17.028,0,0,0,.2,1.994,1.524,1.524,0,0,0,.4.868,1.523,1.523,0,0,0,.893.341,17.353,17.353,0,0,0,2,.063h.516a17.327,17.327,0,0,0,2-.063,1.517,1.517,0,0,0,.893-.341,1.519,1.519,0,0,0,.4-.868,17.485,17.485,0,0,0,.2-1.994L10.633,3H2.368ZM5.461,1c-.233,0-.382,0-.487.013a.427.427,0,0,0-.082.015l-.009,0s0,0-.006.007a.465.465,0,0,0-.04.073c-.045.1-.093.24-.166.458L4.527,2H8.473L8.33,1.57c-.079-.237-.124-.366-.166-.458a.465.465,0,0,0-.041-.073l-.005-.006-.01,0a.492.492,0,0,0-.082-.015C7.92,1,7.772,1,7.539,1Z" fill="#131415"/></svg>