<svg xmlns="http://www.w3.org/2000/svg" width="22.756" height="21.455" viewBox="0 0 22.756 21.455"><path d="M21.833,21.455a.943.943,0,0,1-.652-.255l-3.488-3.288a11.169,11.169,0,0,1-6.93,2.383C4.828,20.3,0,15.743,0,10.148S4.828,0,10.763,0,21.525,4.552,21.525,10.148A9.81,9.81,0,0,1,19,16.682l3.487,3.289a.833.833,0,0,1,0,1.23A.943.943,0,0,1,21.833,21.455ZM10.763,1.74a8.684,8.684,0,0,0-8.917,8.408,8.684,8.684,0,0,0,8.917,8.409,8.685,8.685,0,0,0,8.918-8.409A8.684,8.684,0,0,0,10.763,1.74Z" transform="translate(0 0)"/></svg>