<svg xmlns="http://www.w3.org/2000/svg" width="35.854" height="35.854" viewBox="0 0 35.854 35.854"><path d="M17.927,0A17.927,17.927,0,1,1,0,17.927,17.927,17.927,0,0,1,17.927,0ZM13.555,7.676H22.3a5.948,5.948,0,0,1,5.968,5.891v8.72A5.947,5.947,0,0,1,22.3,28.178H13.555a5.947,5.947,0,0,1-5.969-5.891v-8.72A5.948,5.948,0,0,1,13.555,7.676Zm4.316,4.716a5.78,5.78,0,1,1-5.78,5.78A5.782,5.782,0,0,1,17.871,12.391Zm0,1.952a3.828,3.828,0,1,1-3.828,3.827A3.829,3.829,0,0,1,17.871,14.343Zm5.592-2.753a.938.938,0,1,1-.938.938A.938.938,0,0,1,23.463,11.59ZM14.27,9.35h7.315a4.994,4.994,0,0,1,4.993,4.967v7.352a4.994,4.994,0,0,1-4.993,4.966H14.27a4.994,4.994,0,0,1-4.994-4.966V14.317A5,5,0,0,1,14.27,9.35Z" fill="#505459" fill-rule="evenodd"/></svg>