<svg xmlns="http://www.w3.org/2000/svg" width="35.854" height="35.853" viewBox="0 0 35.854 35.853"><path d="M17.927,0A17.926,17.926,0,1,1,0,17.926,17.926,17.926,0,0,1,17.927,0Zm5.012,16.352c.8-4.028-.764-7.4-5.005-7.43-3.034-.023-5.8,1.96-5.045,7.148.1.649-.218.569-.7.46-.408-.086-.816-.178-1.218-.264a.787.787,0,0,0-.454.218c-.586.621.592,1.1,1.034,1.264.586.218,1.218.425,1.138,1.109a3.028,3.028,0,0,1-.23.8,5.64,5.64,0,0,1-3.413,2.977c-.724.207-1.092.287.012.891a5.706,5.706,0,0,0,1.925.54c.115,2.138.919.764,2.666,1.115a3.386,3.386,0,0,1,.707.184c.448.2.9.58,1.419.879a3.777,3.777,0,0,0,4.494-.115,4.181,4.181,0,0,1,3.287-1.04c1.1.138,1.029.477,1.4-1.069,1.379-.241,2.62-.511,2.551-1.27A5.728,5.728,0,0,1,23.6,19.886c-.379-.609-.856-1.5.144-1.925.259-.109.615-.172,1.017-.316a1.437,1.437,0,0,0,.753-.511.621.621,0,0,0-.557-.879c-.81-.057-1.189.471-1.684.31a1,1,0,0,1-.345-.213h.012Z" fill="#505459" fill-rule="evenodd"/><path d="M72033.766,77416.883Zm0,0Z" transform="translate(-72015.789 -77381.031)"/><path d="M77729.508,82948.18h0Z" transform="translate(-77702.211 -82912.328)" fill="#fff"/></svg>