<svg width="16" height="25" viewBox="0 0 16 25" fill="none" xmlns="http://www.w3.org/2000/svg">
<path d="M14.8302 7.66942C14.8266 7.56512 14.7831 7.46618 14.7087 7.39304C14.6342 7.3199 14.5345 7.27816 14.4302 7.27642H11.2832C11.2487 7.27642 11.2146 7.28324 11.1828 7.29648C11.151 7.30972 11.1222 7.32912 11.0979 7.35357C11.0737 7.37802 11.0545 7.40703 11.0415 7.43893C11.0285 7.47082 11.0219 7.50498 11.0222 7.53942V7.93042C11.0422 8.09406 11.1034 8.24994 11.2002 8.38342C11.2794 8.50313 11.3243 8.64223 11.33 8.78563C11.3357 8.92904 11.3021 9.07128 11.2327 9.19693C11.1634 9.32258 11.0609 9.42683 10.9365 9.49839C10.8121 9.56994 10.6705 9.60607 10.527 9.60285C10.3835 9.59962 10.2436 9.55718 10.1225 9.4801C10.0015 9.40303 9.90382 9.29428 9.84016 9.16565C9.77651 9.03702 9.74929 8.89341 9.76146 8.7504C9.77363 8.60739 9.82472 8.47045 9.90919 8.35442C10.012 8.22695 10.0768 8.07306 10.0962 7.91042V7.54542C10.0962 7.47601 10.0688 7.40942 10.0199 7.36016C9.97098 7.31089 9.90459 7.28295 9.83519 7.28242H6.46818C6.43374 7.28242 6.39964 7.28924 6.36784 7.30248C6.33605 7.31572 6.30719 7.33513 6.28293 7.35957C6.25867 7.38402 6.23948 7.41303 6.22649 7.44493C6.21349 7.47682 6.20693 7.51098 6.2072 7.54542V7.91042C6.22655 8.07306 6.29136 8.22695 6.3942 8.35442C6.47958 8.46995 6.53164 8.60669 6.54468 8.74976C6.55772 8.89282 6.53125 9.03672 6.46815 9.16578C6.40506 9.29484 6.30777 9.40412 6.18686 9.4817C6.06595 9.55928 5.92607 9.6022 5.78245 9.60577C5.63884 9.60935 5.49699 9.57345 5.37238 9.50198C5.24776 9.43051 5.14515 9.32622 5.07571 9.20046C5.00627 9.0747 4.97267 8.93229 4.97858 8.78876C4.98448 8.64522 5.02966 8.50605 5.10919 8.38642C5.2069 8.25346 5.26824 8.09733 5.28719 7.93342V7.54242C5.28719 7.47301 5.25977 7.40642 5.21088 7.35716C5.16199 7.30789 5.0956 7.27995 5.0262 7.27942H1.88119C1.77685 7.28116 1.67715 7.3229 1.60271 7.39604C1.52826 7.46918 1.48476 7.56812 1.48119 7.67242L1.00319 23.6094C1.0013 23.6605 1.00977 23.7115 1.02809 23.7592C1.04642 23.807 1.07422 23.8505 1.10982 23.8872C1.14541 23.924 1.18808 23.9531 1.23523 23.9729C1.28238 23.9927 1.33305 24.0027 1.38419 24.0024H14.9292C14.9803 24.0027 15.031 23.9927 15.0782 23.9729C15.1253 23.9531 15.168 23.924 15.2036 23.8872C15.2392 23.8505 15.267 23.807 15.2853 23.7592C15.3036 23.7115 15.3121 23.6605 15.3102 23.6094L14.8302 7.66942ZM5.74919 8.97742C5.80223 8.97742 5.8531 8.95635 5.89061 8.91884C5.92812 8.88134 5.94919 8.83047 5.94919 8.77742V3.95742C5.94919 3.37156 6.18192 2.80969 6.59619 2.39542C7.01046 1.98116 7.57232 1.74842 8.15819 1.74842C8.74405 1.74842 9.30592 1.98116 9.72018 2.39542C10.1345 2.80969 10.3672 3.37156 10.3672 3.95742V8.77742C10.3759 8.82319 10.4003 8.86449 10.4361 8.8942C10.472 8.92391 10.5171 8.94017 10.5637 8.94017C10.6103 8.94017 10.6554 8.92391 10.6913 8.8942C10.7271 8.86449 10.7515 8.82319 10.7602 8.77742V3.95742C10.7602 3.26786 10.4863 2.60654 9.99867 2.11894C9.51108 1.63135 8.84975 1.35742 8.16019 1.35742C7.47062 1.35742 6.80931 1.63135 6.32172 2.11894C5.83412 2.60654 5.5602 3.26786 5.5602 3.95742V8.77742C5.56012 8.82861 5.57966 8.87789 5.61482 8.91509C5.64998 8.9523 5.69808 8.97461 5.74919 8.97742V8.97742Z" stroke="#505459" stroke-width="0.8"/>
</svg>
