<svg width="24" height="23" viewBox="0 0 24 23" fill="none" xmlns="http://www.w3.org/2000/svg">
<path d="M2.68661 5.02361C3.9773 5.02361 5.02361 3.9773 5.02361 2.68661C5.02361 1.39592 3.9773 0.349609 2.68661 0.349609C1.39592 0.349609 0.349609 1.39592 0.349609 2.68661C0.349609 3.9773 1.39592 5.02361 2.68661 5.02361Z" stroke="#505459" stroke-width="0.7"/>
<path d="M2.68661 13.9787C3.9773 13.9787 5.02361 12.9324 5.02361 11.6417C5.02361 10.351 3.9773 9.30469 2.68661 9.30469C1.39592 9.30469 0.349609 10.351 0.349609 11.6417C0.349609 12.9324 1.39592 13.9787 2.68661 13.9787Z" stroke="#505459" stroke-width="0.7"/>
<path d="M2.68661 22.0383C3.9773 22.0383 5.02361 20.9919 5.02361 19.7013C5.02361 18.4106 3.9773 17.3643 2.68661 17.3643C1.39592 17.3643 0.349609 18.4106 0.349609 19.7013C0.349609 20.9919 1.39592 22.0383 2.68661 22.0383Z" stroke="#505459" stroke-width="0.7"/>
<path d="M21.0447 0.349609H9.40267C8.35941 0.349609 7.51367 1.19534 7.51367 2.23861C7.51367 3.28188 8.35941 4.12761 9.40267 4.12761H21.0447C22.0879 4.12761 22.9337 3.28188 22.9337 2.23861C22.9337 1.19534 22.0879 0.349609 21.0447 0.349609Z" stroke="#505459" stroke-width="0.7"/>
<path d="M21.0447 9.30469H9.40267C8.35941 9.30469 7.51367 10.1504 7.51367 11.1937C7.51367 12.237 8.35941 13.0827 9.40267 13.0827H21.0447C22.0879 13.0827 22.9337 12.237 22.9337 11.1937C22.9337 10.1504 22.0879 9.30469 21.0447 9.30469Z" stroke="#505459" stroke-width="0.7"/>
<path d="M21.0447 17.3643H9.40267C8.35941 17.3643 7.51367 18.21 7.51367 19.2533C7.51367 20.2965 8.35941 21.1423 9.40267 21.1423H21.0447C22.0879 21.1423 22.9337 20.2965 22.9337 19.2533C22.9337 18.21 22.0879 17.3643 21.0447 17.3643Z" stroke="#505459" stroke-width="0.7"/>
</svg>
