<svg width="24" height="24" viewBox="0 0 24 24" fill="none" xmlns="http://www.w3.org/2000/svg">
<path d="M12 0.999023C9.82441 0.999023 7.69767 1.64416 5.88873 2.85286C4.07979 4.06155 2.66989 5.77952 1.83733 7.78951C1.00477 9.79949 0.786929 12.0112 1.21137 14.145C1.6358 16.2788 2.68345 18.2388 4.22183 19.7772C5.76021 21.3156 7.72022 22.3632 9.85401 22.7877C11.9878 23.2121 14.1995 22.9943 16.2095 22.1617C18.2195 21.3291 19.9375 19.9192 21.1462 18.1103C22.3549 16.3014 23 14.1746 23 11.999C23 9.08164 21.8411 6.28375 19.7782 4.22085C17.7153 2.15795 14.9174 0.999023 12 0.999023V0.999023ZM12 4.28902C12.7195 4.28883 13.423 4.502 14.0213 4.90158C14.6197 5.30117 15.0862 5.86922 15.3617 6.5339C15.6372 7.19858 15.7095 7.93004 15.5693 8.63578C15.4291 9.34152 15.0828 9.98985 14.5742 10.4988C14.0655 11.0077 13.4174 11.3544 12.7117 11.4949C12.0061 11.6355 11.2746 11.5636 10.6097 11.2885C9.94489 11.0133 9.37659 10.5472 8.97667 9.94902C8.57676 9.35086 8.3632 8.64755 8.363 7.92802C8.363 6.96325 8.74612 6.03796 9.42814 5.35557C10.1101 4.67318 11.0352 4.28955 12 4.28902ZM12 20.124C10.0724 20.126 8.20765 19.4382 6.743 18.185C6.57283 18.0395 6.43618 17.8589 6.34244 17.6555C6.24871 17.4522 6.20012 17.2309 6.2 17.007C6.20013 16.5238 6.29572 16.0453 6.48129 15.5991C6.66686 15.1529 6.93875 14.7477 7.28134 14.4069C7.62393 14.0661 8.03048 13.7963 8.47764 13.613C8.9248 13.4298 9.40376 13.3367 9.887 13.339H14.121C14.6038 13.337 15.0822 13.4305 15.5287 13.614C15.9752 13.7975 16.3811 14.0674 16.723 14.4083C17.0648 14.7491 17.336 15.1542 17.5208 15.6002C17.7057 16.0461 17.8005 16.5243 17.8 17.007C17.8 17.2311 17.7514 17.4524 17.6575 17.6558C17.5636 17.8592 17.4266 18.0398 17.256 18.185C15.7918 19.4383 13.9273 20.1261 12 20.124Z" stroke="#505459" stroke-width="0.7"/>
</svg>
