<svg width="31" height="26" viewBox="0 0 31 26" fill="none" xmlns="http://www.w3.org/2000/svg">
<path d="M29.8674 11.1107L17.1604 1.45766C16.7072 1.1585 16.176 0.999023 15.6329 0.999023C15.0898 0.999023 14.5587 1.1585 14.1054 1.45766L1.52043 11.1107C1.3064 11.2487 1.14518 11.4549 1.0628 11.6958C0.980428 11.9368 0.981724 12.1986 1.06648 12.4387C1.15123 12.6789 1.3145 12.8834 1.52988 13.0193C1.74526 13.1552 2.00018 13.2145 2.25343 13.1877H3.47543V20.6407C3.50499 21.9163 4.03317 23.1295 4.94673 24.0203C5.86029 24.911 7.08649 25.4084 8.36243 25.4057H10.8064C10.9692 25.4153 11.1322 25.3903 11.2847 25.3323C11.4371 25.2743 11.5756 25.1847 11.6908 25.0693C11.8061 24.954 11.8956 24.8155 11.9535 24.663C12.0113 24.5105 12.0362 24.3475 12.0264 24.1847V18.1977C12.024 17.5372 12.2769 16.9014 12.7324 16.4232C13.1879 15.9449 13.8107 15.6613 14.4704 15.6317H16.9164C17.5762 15.6613 18.199 15.9449 18.6544 16.4232C19.1099 16.9014 19.3629 17.5372 19.3604 18.1977V24.1847C19.361 24.5086 19.4899 24.8191 19.7189 25.0482C19.948 25.2772 20.2585 25.4061 20.5824 25.4067H23.0264C24.3024 25.4094 25.5286 24.912 26.4421 24.0213C27.3557 23.1305 27.8839 21.9173 27.9134 20.6417V13.1877H29.1354C29.3775 13.1885 29.6138 13.1141 29.8116 12.9746C30.0094 12.8351 30.1589 12.6375 30.2394 12.4092C30.3198 12.181 30.3273 11.9333 30.2606 11.7006C30.194 11.4679 30.0565 11.2617 29.8674 11.1107V11.1107Z" stroke="#505459" stroke-width="0.5"/>
</svg>
