<svg width="27" height="24" viewBox="0 0 27 24" fill="none" xmlns="http://www.w3.org/2000/svg">
<path d="M25.9987 8.59225C24.8867 17.1922 13.3157 23.0002 13.3157 23.0002C-0.984293 14.7092 0.547702 7.02926 0.547702 7.02926C0.6344 5.56712 1.18155 4.16991 2.1108 3.03771C3.04005 1.90551 4.30374 1.09638 5.7209 0.726219C7.13807 0.356055 8.63603 0.443842 10.0003 0.976982C11.3645 1.51012 12.525 2.46126 13.3157 3.69424C14.1065 2.46168 15.267 1.51094 16.6311 0.97808C17.9951 0.445218 19.4928 0.357561 20.9097 0.727684C22.3266 1.09781 23.5901 1.90672 24.5193 3.03863C25.4485 4.17053 25.9957 5.5674 26.0827 7.02926V7.02926C26.0945 7.55164 26.0665 8.07414 25.9987 8.59225V8.59225Z" stroke="#505459" stroke-width="0.7" stroke-miterlimit="10"/>
</svg>
