<?xml version="1.0" encoding="utf-8"?>
<!-- Generator: Adobe Illustrator 24.3.0, SVG Export Plug-In . SVG Version: 6.00 Build 0)  -->
<svg version="1.1" id="Layer_1" xmlns="http://www.w3.org/2000/svg" xmlns:xlink="http://www.w3.org/1999/xlink" x="0px" y="0px"
	 viewBox="0 0 306 203" style="enable-background:new 0 0 306 203;" xml:space="preserve">
<style type="text/css">
	.st0{fill:#5A8A89;}
	.st1{fill:#003B60;}
	.st2{fill:none;stroke:#FFFFFF;stroke-width:3;stroke-miterlimit:10;}
	.st3{fill:none;stroke:#003B60;stroke-width:2;stroke-miterlimit:10;}
	.st4{fill:#B0CAEE;}
	.st5{opacity:0.51;fill:#E1E8F9;enable-background:new    ;}
	.st6{fill:#F9F9F9;}
	.st7{fill:#FF594E;}
	.st8{fill:#6785D4;}
	.st9{fill:none;stroke:#6785D4;stroke-width:2;stroke-miterlimit:10;}
	.st10{fill:none;stroke:#8E0C0C;stroke-width:2;stroke-miterlimit:10;}
	.st11{fill:none;stroke:#DDD8D8;stroke-width:2;stroke-miterlimit:10;}
</style>
<g transform="translate(55.431 89.648)">
	<path class="st0" d="M29.6-54.9c-3.2,0.6-5.8,4-6.2,8.4c0,0.1-0.1,0.1-0.1,0c-0.5-4.3-3-7.8-6.2-8.4c-0.1,0-0.1-0.2,0-0.2
		c3.2-0.6,5.8-4,6.2-8.4c0-0.1,0.1-0.1,0.1,0c0.5,4.3,3,7.8,6.2,8.4C29.7-55.1,29.7-54.9,29.6-54.9z"/>
	<path class="st1" d="M148.9-65.9c-3.2,0.6-5.8,4-6.2,8.4c0,0.1-0.1,0.1-0.1,0c-0.5-4.3-3-7.8-6.2-8.4c-0.1,0-0.1-0.2,0-0.2
		c3.2-0.6,5.8-4,6.2-8.4c0-0.1,0.1-0.1,0.1,0c0.5,4.3,3,7.8,6.2,8.4C148.9-66.1,148.9-65.9,148.9-65.9z"/>
	<circle class="st2" cx="2.8" cy="-30.7" r="2.8"/>
	<circle class="st2" cx="186.3" cy="84.6" r="2.8"/>
</g>
<g transform="translate(72.131 88.433)">
	<path class="st3" d="M37.1-33.5v-23.8c0-9.6,7.8-17.3,17.3-17.3h0l0,0c9.6,0,17.3,7.8,17.3,17.3v0v23.8"/>
	<path class="st4" d="M138.3,103.8H39.4L29.9-33.5h97.8l1.9,24.9l0.6,8.4l0.5,6.3l1.6,20.4l4.9,63.6L138.3,103.8z"/>
	<path class="st5" d="M45.1,97.7l-8.6-125h85.6l9.6,125H45.1z"/>
	<path class="st6" d="M132.9,26.6H48.8L47.5,6.2h84.1L132.9,26.6z"/>
	<path class="st7" d="M39.4,103.8H0L10.9-33.5h19L39.4,103.8z"/>
	<path class="st8" d="M39.4,103.8H0L11-33.5h19L39.4,103.8z"/>
	<path class="st9" d="M58.4-33.5v-23.8c0-9.6,7.8-17.3,17.3-17.3h0l0,0c9.6,0,17.3,7.8,17.3,17.3v0v23.8"/>
	<path class="st9" d="M84.6-72.1C89.8-69,93-63.3,93-57.2v23.8"/>
	<path class="st10" d="M58.4-33.5"/>
</g>
<g transform="translate(56.117 266.702)">
	<line class="st11" x1="0" y1="-74.6" x2="171.3" y2="-74.6"/>
	<line class="st11" x1="174.9" y1="-74.6" x2="188.6" y2="-74.6"/>
</g>
<g transform="translate(128.352 131.309)">
	<path class="st1" d="M4.9-72.1c0,0.6-0.3,1.3-0.7,1.7c0,0,0,0,0,0c-1,1-2.5,1-3.5,0s-1-2.5,0-3.5c0.3-0.3,0.6-0.5,0.9-0.6
		c0.3-0.1,0.6-0.2,0.8-0.2C3.8-74.6,4.9-73.5,4.9-72.1C4.9-72.1,4.9-72.1,4.9-72.1z"/>
	<path class="st8" d="M4.9-72.1c0,0.6-0.3,1.3-0.7,1.7c0,0,0,0,0,0c-0.3,0.1-0.6,0.2-0.8,0.2c-1.4,0-2.4-1.1-2.4-2.5
		c0-0.6,0.3-1.3,0.7-1.7c0.3-0.1,0.6-0.2,0.8-0.2C3.8-74.6,4.9-73.5,4.9-72.1C4.9-72.1,4.9-72.1,4.9-72.1z"/>
</g>
<g transform="translate(162.407 131.309)">
	<path class="st1" d="M4.9-72.1c0,0.6-0.3,1.3-0.7,1.7c0,0,0,0,0,0l0,0c-1,1-2.5,1-3.5,0c-1-1-1-2.5,0-3.5c0.3-0.3,0.6-0.5,0.9-0.6
		c0.3-0.1,0.6-0.2,0.8-0.2C3.8-74.6,4.9-73.5,4.9-72.1C4.9-72.1,4.9-72.1,4.9-72.1z"/>
	<path class="st8" d="M4.9-72.1c0,0.6-0.3,1.3-0.7,1.7c0,0,0,0,0,0l0,0c-0.3,0.1-0.6,0.2-0.8,0.2c-1.4,0-2.4-1.1-2.4-2.5
		c0-0.6,0.3-1.3,0.7-1.7c0.3-0.1,0.6-0.2,0.8-0.2C3.8-74.6,4.9-73.5,4.9-72.1C4.9-72.1,4.9-72.1,4.9-72.1z"/>
</g>
</svg>
