<svg xmlns="http://www.w3.org/2000/svg" width="18.746" height="23.049" viewBox="0 0 18.746 23.049"><path d="M9.314,5.316a4.86,4.86,0,0,1,1.227-3.557A5.123,5.123,0,0,1,13.948,0a5.175,5.175,0,0,1-1.2,3.694m1.186,1.881c-1.895-.109-3.516,1.077-4.416,1.077S7.229,5.629,5.73,5.656A5.6,5.6,0,0,0,.973,8.546c-2.044,3.516-.532,8.723,1.445,11.585.968,1.417,2.126,2.971,3.653,2.917,1.445-.055,2.017-.94,3.762-.94s2.263.94,3.789.913c1.581-.027,2.576-1.417,3.544-2.835a12.432,12.432,0,0,0,1.581-3.257,5.135,5.135,0,0,1-3.08-4.675A5.244,5.244,0,0,1,18.16,7.864a5.4,5.4,0,0,0-4.225-2.29"/></svg>