<svg width="20" height="25" viewBox="0 0 20 25" fill="none" xmlns="http://www.w3.org/2000/svg">
<path d="M9.59567 1.26626C11.0532 1.21383 12.472 1.74181 13.5406 2.73434C14.6093 3.72687 15.2405 5.10284 15.2957 6.56026C15.2405 8.01768 14.6093 9.39365 13.5406 10.3862C12.472 11.3787 11.0532 11.9067 9.59567 11.8543C8.13808 11.907 6.71915 11.3791 5.65045 10.3865C4.58174 9.39389 3.95062 8.01777 3.89567 6.56026C3.95088 5.10284 4.58208 3.72687 5.65073 2.73434C6.71937 1.74181 8.13815 1.21383 9.59567 1.26626V1.26626ZM9.59567 24.3053C6.61261 24.3206 3.71208 23.3263 1.36567 21.4843C1.10339 21.2815 0.89047 21.0219 0.742904 20.7251C0.595338 20.4282 0.516964 20.1018 0.513672 19.7703C0.541746 19.0407 0.713372 18.3238 1.01873 17.6606C1.3241 16.9974 1.7572 16.4009 2.29329 15.9052C2.82937 15.4095 3.45791 15.0244 4.14296 14.7718C4.82801 14.5192 5.55613 14.4042 6.28567 14.4333H12.9137C13.6428 14.4042 14.3704 14.5193 15.055 14.772C15.7395 15.0247 16.3674 15.4099 16.9028 15.9057C17.4381 16.4015 17.8704 16.9981 18.1748 17.6612C18.4792 18.3244 18.6498 19.0411 18.6767 19.7703C18.6739 20.1018 18.5959 20.4283 18.4485 20.7252C18.3011 21.0222 18.0881 21.2817 17.8257 21.4843C15.4784 23.3276 12.5762 24.3219 9.59167 24.3053H9.59567Z" stroke="#505459" stroke-width="0.7"/>
</svg>
