<svg width="23" height="23" viewBox="0 0 23 23" fill="none" xmlns="http://www.w3.org/2000/svg">
<path d="M12.486 22.757H10.1C8.42868 22.8007 6.75627 22.7429 5.09198 22.584C3.88322 22.5021 2.73917 22.0079 1.85098 21.184C1.02633 20.2958 0.53204 19.1512 0.450981 17.942C0.29239 16.2783 0.234951 14.6066 0.278981 12.936V10.55C0.23527 8.879 0.293043 7.20693 0.451981 5.54296C0.532864 4.33398 1.02719 3.18961 1.85198 2.30196C2.73951 1.47775 3.88347 0.983796 5.09198 0.902964C6.75627 0.743986 8.42868 0.686213 10.1 0.729964H15.811C16.0358 0.729964 16.2513 0.819254 16.4103 0.978191C16.5692 1.13713 16.6585 1.35269 16.6585 1.57746C16.6585 1.80224 16.5692 2.0178 16.4103 2.17674C16.2513 2.33567 16.0358 2.42496 15.811 2.42496H10.163C8.54661 2.38104 6.92906 2.43381 5.31898 2.58296C4.48018 2.62219 3.67967 2.94556 3.04898 3.49996C2.49458 4.13065 2.1712 4.93116 2.13198 5.76996C1.98281 7.38004 1.93005 8.99759 1.97398 10.614V12.873C1.93008 14.4897 1.98284 16.1076 2.13198 17.718C2.17048 18.5566 2.49396 19.357 3.04898 19.987C3.67953 20.5417 4.48006 20.8655 5.31898 20.905C6.92907 21.0539 8.54661 21.1066 10.163 21.063H12.422C14.0387 21.1066 15.6566 21.0538 17.267 20.905C18.1057 20.866 18.9061 20.5422 19.536 19.987C20.0912 19.3571 20.415 18.5567 20.454 17.718C20.6029 16.1075 20.6556 14.4897 20.612 12.873V10.613C20.612 10.3882 20.7013 10.1726 20.8602 10.0137C21.0191 9.85475 21.2347 9.76546 21.4595 9.76546C21.6843 9.76546 21.8998 9.85475 22.0588 10.0137C22.2177 10.1726 22.307 10.3882 22.307 10.613V12.936C22.3507 14.6069 22.293 16.279 22.134 17.943C22.0516 19.1519 21.5575 20.2961 20.734 21.185C19.8451 22.0085 18.7009 22.5026 17.492 22.585C15.8283 22.7436 14.1566 22.801 12.486 22.757ZM11.292 14.85C11.0671 14.8496 10.8515 14.7605 10.692 14.602L7.30498 11.212C7.14585 11.0528 7.05645 10.837 7.05645 10.612C7.05645 10.3869 7.14585 10.1711 7.30498 10.012C7.46411 9.85283 7.67994 9.76344 7.90498 9.76344C8.13002 9.76344 8.34585 9.85283 8.50498 10.012L11.295 12.802L20.863 3.23496C21.0221 3.07583 21.2379 2.98644 21.463 2.98644C21.688 2.98644 21.9039 3.07583 22.063 3.23496C22.2221 3.39409 22.3115 3.60992 22.3115 3.83496C22.3115 4.06001 22.2221 4.27583 22.063 4.43496L11.892 14.601C11.8132 14.6798 11.7197 14.7423 11.6167 14.7848C11.5138 14.8274 11.4034 14.8492 11.292 14.849V14.85Z" fill="#22282F"/>
</svg>
