<svg width="23" height="23" viewBox="0 0 23 23" fill="none" xmlns="http://www.w3.org/2000/svg">
<path d="M11.292 22.111C9.11395 22.1108 6.98484 21.4647 5.17392 20.2545C3.36299 19.0443 1.95158 17.3243 1.11816 15.312C0.284734 13.2997 0.0667238 11.0854 0.491695 8.94919C0.916666 6.81297 1.96553 4.85073 3.50567 3.3106C5.0458 1.77046 7.00804 0.721597 9.14426 0.296626C11.2805 -0.128345 13.4947 0.0896653 15.5071 0.923089C17.5194 1.75651 19.2394 3.16792 20.4496 4.97885C21.6598 6.78977 22.3058 8.91889 22.306 11.097C22.3029 14.0171 21.1414 16.8167 19.0766 18.8815C17.0118 20.9464 14.2122 22.1078 11.292 22.111ZM8.27903 16.268C8.43582 16.8393 8.63401 17.3984 8.87204 17.941C9.16319 18.6502 9.58596 19.298 10.118 19.85C10.4217 20.1829 10.8424 20.3854 11.292 20.415C11.742 20.3855 12.1631 20.183 12.467 19.85C12.9991 19.298 13.4219 18.6502 13.713 17.941C13.9503 17.3982 14.1481 16.8391 14.305 16.268C13.306 16.3984 12.2995 16.4632 11.292 16.462C10.2845 16.4632 9.27805 16.3984 8.27903 16.268ZM19.987 14.459C19.6139 14.6869 19.2261 14.8896 18.826 15.066C17.9596 15.4424 17.0592 15.7351 16.137 15.94C15.9321 16.8621 15.6395 17.7626 15.263 18.629C15.0867 19.029 14.8839 19.4169 14.656 19.79C15.8663 19.3206 16.9654 18.6041 17.8833 17.6863C18.8012 16.7684 19.5177 15.6692 19.987 14.459ZM2.59903 14.459C3.06877 15.6692 3.78549 16.7682 4.70352 17.6861C5.62155 18.6039 6.72074 19.3205 7.93103 19.79C7.70314 19.4169 7.50036 19.029 7.32403 18.629C6.94759 17.7626 6.65492 16.8621 6.45003 15.94C5.52785 15.7352 4.6274 15.4425 3.76103 15.066C3.36045 14.8898 2.97194 14.6873 2.59803 14.46L2.59903 14.459ZM11.293 7.42497C10.1542 7.42226 9.01713 7.51256 7.89303 7.69497C7.53269 9.94731 7.53269 12.2426 7.89303 14.495C9.01716 14.677 10.1543 14.767 11.293 14.764C12.4318 14.767 13.5689 14.677 14.693 14.495C14.8751 13.3708 14.965 12.2337 14.962 11.095C14.9651 9.9562 14.8751 8.81909 14.693 7.69497C13.5686 7.51288 12.4311 7.42292 11.292 7.42597L11.293 7.42497ZM16.464 8.08397C16.5944 9.08298 16.6592 10.0895 16.658 11.097C16.6593 12.1045 16.5945 13.111 16.464 14.11C17.0352 13.953 17.5943 13.7552 18.137 13.518C18.8463 13.2268 19.494 12.804 20.046 12.272C20.3791 11.968 20.5816 11.5469 20.611 11.097C20.5814 10.6473 20.379 10.2266 20.046 9.92297C19.494 9.39089 18.8463 8.96812 18.137 8.67697C17.5945 8.43894 17.0354 8.24075 16.464 8.08397ZM6.12103 8.08397C5.55008 8.2409 4.99128 8.43909 4.44903 8.67697C3.73926 8.9677 3.09113 9.39052 2.53903 9.92297C2.20577 10.2264 2.00322 10.6472 1.97403 11.097C2.00348 11.5469 2.20596 11.968 2.53903 12.272C3.09083 12.8043 3.73862 13.2271 4.44803 13.518C4.99048 13.7551 5.54925 13.9529 6.12003 14.11C5.86287 12.1095 5.8632 10.0843 6.12103 8.08397ZM14.656 2.40297C14.8837 2.77652 15.0865 3.1647 15.263 3.56497C15.6396 4.43132 15.9323 5.33177 16.137 6.25397C17.0592 6.45887 17.9596 6.75154 18.826 7.12797C19.2261 7.30429 19.6139 7.50707 19.987 7.73497C19.5175 6.52467 18.801 5.42548 17.8832 4.50745C16.9653 3.58942 15.8662 2.8727 14.656 2.40297ZM7.93103 2.40297C6.72062 2.87273 5.62131 3.58945 4.70313 4.50745C3.78495 5.42546 3.06803 6.52464 2.59803 7.73497C2.9716 7.5073 3.35977 7.30452 3.76003 7.12797C4.62639 6.75141 5.52684 6.45874 6.44903 6.25397C6.65382 5.33178 6.94649 4.43133 7.32303 3.56497C7.49958 3.1647 7.70236 2.77652 7.93003 2.40297H7.93103ZM11.293 5.73197C12.3005 5.73088 13.307 5.79535 14.306 5.92497C14.149 5.35419 13.9511 4.79542 13.714 4.25297C13.4229 3.54346 12.9998 2.89566 12.467 2.34397C12.1633 2.01055 11.7421 1.808 11.292 1.77897C10.8423 1.80815 10.4214 2.0107 10.118 2.34397C9.58568 2.89575 9.16286 3.54354 8.87204 4.25297C8.63415 4.79521 8.43596 5.35401 8.27903 5.92497C9.27813 5.79544 10.2846 5.73097 11.292 5.73197H11.293Z" fill="#22282F"/>
</svg>
