<svg width="21" height="22" viewBox="0 0 21 22" fill="none" xmlns="http://www.w3.org/2000/svg">
<path d="M0.0409686 4.34602C0.0822084 4.03416 0.217962 3.74242 0.429969 3.51002L3.56897 0.374021C3.81297 0.164687 3.99597 0.19802 4.11797 0.47402L6.65197 5.23502C6.72066 5.36604 6.74503 5.5158 6.72141 5.66184C6.69779 5.80789 6.62746 5.94233 6.52097 6.04502L5.37197 7.19302C5.15859 7.41163 5.02901 7.6984 5.00597 8.00302C5.08496 8.73563 5.36532 9.43204 5.81597 10.015C6.29312 10.7517 6.82601 11.4508 7.40997 12.106L8.21997 12.941C8.46397 13.185 8.77697 13.486 9.16197 13.841C9.75716 14.358 10.3903 14.8297 11.056 15.252C11.6567 15.7258 12.3744 16.0281 13.133 16.127C13.2881 16.1304 13.4423 16.1019 13.5861 16.0434C13.7299 15.985 13.8602 15.8977 13.969 15.787L15.33 14.433C15.4229 14.3194 15.5559 14.2457 15.7016 14.2271C15.8472 14.2085 15.9944 14.2464 16.113 14.333L20.687 17.024C20.7408 17.0501 20.7878 17.0885 20.8241 17.1361C20.8604 17.1837 20.885 17.2392 20.896 17.298C20.9054 17.3524 20.9012 17.4083 20.8837 17.4606C20.8663 17.513 20.8361 17.5602 20.796 17.598L17.66 20.734C17.4282 20.9468 17.1368 21.0833 16.825 21.125C15.8479 21.2335 14.8591 21.1126 13.937 20.772C12.8881 20.4251 11.8874 19.9467 10.959 19.348C10.0443 18.756 9.19497 18.156 8.41097 17.548C7.62697 16.94 6.99764 16.4154 6.52297 15.974L5.84397 15.32C5.66997 15.146 5.4393 14.9064 5.15197 14.601C4.86463 14.2957 4.36463 13.6957 3.65197 12.801C2.97877 11.9639 2.3576 11.0863 1.79197 10.173C1.23704 9.25249 0.780522 8.27611 0.429969 7.26002C0.0685585 6.33392 -0.0648585 5.33449 0.0409686 4.34602Z" fill="#22282F"/>
</svg>
