<svg width="20" height="24" viewBox="0 0 20 24" fill="none" xmlns="http://www.w3.org/2000/svg">
<path d="M10.0099 23.382C8.94942 23.3817 7.91179 23.0739 7.02261 22.4961C6.13343 21.9182 5.43084 21.0949 4.99988 20.126L4.93988 19.993H3.40288C2.97822 19.9931 2.55841 19.9028 2.17133 19.7281C1.78426 19.5534 1.43879 19.2984 1.15787 18.9799C0.876949 18.6614 0.667017 18.2868 0.542019 17.881C0.417021 17.4751 0.379818 17.0473 0.432883 16.626L1.54988 7.693C1.80791 5.63147 2.80988 3.73513 4.36753 2.36029C5.92517 0.985446 7.93127 0.226746 10.0089 0.226746C12.0865 0.226746 14.0926 0.985446 15.6502 2.36029C17.2079 3.73513 18.2099 5.63147 18.4679 7.693L19.5849 16.626C19.6373 17.047 19.5997 17.4744 19.4744 17.8798C19.3491 18.2851 19.1391 18.6592 18.8582 18.9772C18.5774 19.2952 18.2321 19.5499 17.8454 19.7243C17.4586 19.8988 17.0392 19.989 16.6149 19.989H15.0779L15.0189 20.122C14.5885 21.0915 13.8863 21.9154 12.9973 22.494C12.1083 23.0726 11.0706 23.381 10.0099 23.382ZM6.85188 19.993C7.19739 20.5141 7.6665 20.9415 8.21735 21.2372C8.76821 21.5329 9.38369 21.6876 10.0089 21.6876C10.6341 21.6876 11.2496 21.5329 11.8004 21.2372C12.3513 20.9415 12.8204 20.5141 13.1659 19.993H6.85188ZM10.0099 1.921C8.34577 1.92294 6.73945 2.53148 5.49176 3.63263C4.24408 4.73379 3.44063 6.25203 3.23188 7.903L2.10988 16.839C2.08723 17.0216 2.10362 17.207 2.15797 17.3829C2.21231 17.5587 2.30337 17.721 2.42513 17.859C2.54689 17.997 2.69657 18.1076 2.86426 18.1835C3.03195 18.2593 3.21384 18.2987 3.39788 18.299H16.6159C16.7999 18.2987 16.9818 18.2593 17.1495 18.1835C17.3172 18.1076 17.4669 17.997 17.5886 17.859C17.7104 17.721 17.8015 17.5587 17.8558 17.3829C17.9101 17.207 17.9265 17.0216 17.9039 16.839L16.7859 7.903C16.577 6.25246 15.7738 4.73462 14.5265 3.63354C13.2793 2.53247 11.6736 1.92364 10.0099 1.921Z" fill="#22282F"/>
</svg>
