<svg width="23" height="23" viewBox="0 0 23 23" fill="none" xmlns="http://www.w3.org/2000/svg">
<path d="M11.2918 22.427H1.12583C0.971438 22.427 0.819965 22.3849 0.687746 22.3052C0.555527 22.2255 0.44758 22.1112 0.375546 21.9746C0.303512 21.8381 0.270125 21.6845 0.278986 21.5303C0.287847 21.3762 0.33862 21.2274 0.425829 21.1C0.890829 20.4 1.18883 19.954 1.40383 19.586C1.56135 19.343 1.68231 19.0782 1.76283 18.8C1.78983 18.682 1.80083 18.627 1.80783 18.579C1.81483 18.531 1.81883 18.479 1.82483 18.355C1.80595 17.9845 1.73872 17.6181 1.62483 17.265C1.46383 16.679 1.22483 15.935 0.854829 14.77C0.491266 13.6873 0.296979 12.555 0.278829 11.413C0.278829 9.23459 0.924814 7.1051 2.13509 5.29384C3.34537 3.48257 5.06558 2.07088 7.07818 1.23729C9.09079 0.403693 11.3054 0.185637 13.4419 0.610696C15.5785 1.03575 17.541 2.08484 19.0813 3.62527C20.6216 5.16571 21.6705 7.12831 22.0953 9.26488C22.5202 11.4015 22.3019 13.616 21.4682 15.6286C20.6344 17.6411 19.2225 19.3612 17.4112 20.5713C15.5998 21.7814 13.4702 22.4272 11.2918 22.427ZM11.2918 2.09499C8.82143 2.0979 6.45306 3.08055 4.70622 4.82739C2.95939 6.57422 1.97674 8.9426 1.97383 11.413C1.99094 12.3803 2.15689 13.3392 2.46583 14.256L2.47283 14.276C2.81283 15.34 3.08083 16.176 3.25583 16.819C3.4232 17.3437 3.51183 17.8903 3.51883 18.441C3.51249 18.6912 3.47896 18.94 3.41883 19.183C3.30207 19.6287 3.11723 20.0537 2.87083 20.443C2.80683 20.552 2.75083 20.643 2.69583 20.732H11.2958C12.5277 20.7448 13.7498 20.5131 14.8916 20.0506C16.0334 19.588 17.0721 18.9036 17.9477 18.0371C18.8233 17.1705 19.5184 16.1389 19.9927 15.002C20.4671 13.8651 20.7114 12.6454 20.7114 11.4135C20.7114 10.1816 20.4671 8.96189 19.9927 7.82498C19.5184 6.68807 18.8233 5.65649 17.9477 4.78992C17.0721 3.92335 16.0334 3.23899 14.8916 2.77641C13.7498 2.31384 12.5277 2.08223 11.2958 2.09499H11.2918ZM11.2918 14.52H6.77883C6.55406 14.52 6.33849 14.4307 6.17956 14.2718C6.02062 14.1128 5.93133 13.8973 5.93133 13.6725C5.93133 13.4477 6.02062 13.2322 6.17956 13.0732C6.33849 12.9143 6.55406 12.825 6.77883 12.825H11.2968C11.5216 12.825 11.7372 12.9143 11.8961 13.0732C12.055 13.2322 12.1443 13.4477 12.1443 13.6725C12.1443 13.8973 12.055 14.1128 11.8961 14.2718C11.7372 14.4307 11.5216 14.52 11.2968 14.52H11.2918ZM15.8108 9.99999H6.77883C6.55419 9.99999 6.33875 9.91075 6.17991 9.75191C6.02107 9.59307 5.93183 9.37763 5.93183 9.15299C5.93183 8.92835 6.02107 8.71292 6.17991 8.55407C6.33875 8.39523 6.55419 8.30599 6.77883 8.30599H15.8158C16.0405 8.30599 16.2559 8.39523 16.4147 8.55407C16.5736 8.71292 16.6628 8.92835 16.6628 9.15299C16.6628 9.37763 16.5736 9.59307 16.4147 9.75191C16.2559 9.91075 16.0405 9.99999 15.8158 9.99999H15.8108Z" fill="#22282F"/>
</svg>
