<svg width="24" height="23" viewBox="0 0 24 23" fill="none" xmlns="http://www.w3.org/2000/svg">
<path d="M20.2811 3.43502C18.3524 1.50935 15.7899 0.349817 13.0703 0.172127C10.3506 -0.00556204 7.65904 0.810691 5.49621 2.46904C3.33337 4.12739 1.84656 6.51492 1.31235 9.18748C0.77814 11.86 1.23291 14.6357 2.59207 16.998L0.99707 22.82L6.95607 21.256C8.60361 22.1545 10.4505 22.6245 12.3271 22.623H12.3321C15.3229 22.6229 18.1927 21.442 20.3174 19.3371C22.4421 17.2323 23.6499 14.3737 23.6781 11.383C23.6616 9.89976 23.3529 8.43429 22.7694 7.07049C22.186 5.70668 21.3394 4.47129 20.2781 3.43502H20.2811ZM12.3321 20.729C10.6578 20.7308 9.01393 20.2817 7.57307 19.429L7.23407 19.229L3.69707 20.152L4.63907 16.704L4.41607 16.35C3.66876 15.1193 3.21547 13.7327 3.09147 12.2982C2.96747 10.8636 3.1761 9.41983 3.70113 8.07908C4.22616 6.73834 5.05343 5.53681 6.11859 4.56795C7.18375 3.59909 8.45808 2.88904 9.84243 2.49303C11.2268 2.09703 12.6838 2.02574 14.1002 2.28473C15.5166 2.54371 16.8542 3.12597 18.0088 3.98623C19.1635 4.84648 20.1041 5.96153 20.7575 7.24461C21.4109 8.5277 21.7594 9.94424 21.7761 11.384C21.7497 13.8721 20.7428 16.2492 18.9739 17.9992C17.2051 19.7491 14.8172 20.7304 12.3291 20.73L12.3321 20.729ZM17.4551 13.729C17.1771 13.587 15.7941 12.909 15.5361 12.818C15.2781 12.727 15.0901 12.676 14.9031 12.96C14.7161 13.244 14.1791 13.871 14.0121 14.06C13.8451 14.249 13.6831 14.273 13.4041 14.131C11.7867 13.4853 10.4383 12.3066 9.58207 10.79C9.29307 10.29 9.87107 10.329 10.4071 9.25602C10.4437 9.17847 10.4606 9.09305 10.4563 9.00738C10.4519 8.92171 10.4264 8.83845 10.3821 8.76502C10.3121 8.62902 9.75007 7.24702 9.51707 6.68902C9.28907 6.14202 9.05607 6.21802 8.88407 6.20802C8.71207 6.19802 8.53507 6.19802 8.34707 6.19802C8.205 6.20193 8.06524 6.23491 7.93642 6.29494C7.8076 6.35497 7.69244 6.44076 7.59807 6.54702C7.28129 6.84818 7.03052 7.21186 6.86165 7.61501C6.69278 8.01816 6.6095 8.452 6.61707 8.88902C6.71073 9.94579 7.10802 10.9529 7.76107 11.789C8.96702 13.5948 10.6209 15.0568 12.5611 16.032C14.3431 16.802 15.0421 16.867 15.9331 16.732C16.3241 16.6527 16.6943 16.4928 17.0202 16.2626C17.3461 16.0325 17.6205 15.737 17.8261 15.395C18.0094 14.9747 18.0657 14.5099 17.9881 14.058C17.9211 13.94 17.7341 13.869 17.4561 13.732L17.4551 13.729Z" fill="#22282F"/>
</svg>
