<svg xmlns="http://www.w3.org/2000/svg" width="330" height="41" viewBox="0 0 330 41">
    <g transform="translate(14779 9331)">
        <circle cx="16.5" cy="16.5" r="16.5" transform="translate(-14486 -9327)" fill="#5a8a89"/>
        <g transform="translate(-14478 -9322.16)">
            <g transform="translate(0 0)">
                <path d="M13.764,3.309A5.352,5.352,0,1,1,8.412,8.661,5.353,5.353,0,0,1,13.764,3.309Zm0,23.294a11.876,11.876,0,0,1-7.734-2.852,2.281,2.281,0,0,1-.8-1.734,5.4,5.4,0,0,1,5.424-5.4h6.228a5.39,5.39,0,0,1,5.416,5.4,2.275,2.275,0,0,1-.8,1.733A11.872,11.872,0,0,1,13.76,26.6Z" transform="translate(-5.226 -3.309)" fill="none" stroke="#fff" stroke-width="1.5"/>
            </g>
        </g>
    </g>
</svg>
