<svg xmlns="http://www.w3.org/2000/svg" width="35.061" height="14.396" viewBox="0 0 35.061 14.396"><path d="M6.406,1.856a2.154,2.154,0,0,1-1.726.815A2.442,2.442,0,0,1,5.3.883,2.574,2.574,0,0,1,7.008,0a2.6,2.6,0,0,1-.6,1.856M7,2.8c-.952-.055-1.767.541-2.219.541s-1.151-.514-1.9-.5A2.813,2.813,0,0,0,.489,4.294c-1.027,1.767-.267,4.383.726,5.821.486.712,1.068,1.493,1.835,1.466.726-.027,1.014-.473,1.89-.473s1.137.473,1.9.459c.794-.014,1.294-.712,1.781-1.424a6.246,6.246,0,0,0,.794-1.637A2.58,2.58,0,0,1,7.871,6.157,2.635,2.635,0,0,1,9.125,3.951,2.714,2.714,0,0,0,7,2.8M12.5.815V11.491h1.657V7.841h2.294a3.389,3.389,0,0,0,3.568-3.52A3.349,3.349,0,0,0,16.507.815Zm1.657,1.4h1.911a1.992,1.992,0,0,1,2.26,2.116,2,2,0,0,1-2.267,2.123h-1.9Zm8.889,9.362a2.742,2.742,0,0,0,2.445-1.363h.034v1.281h1.534V6.177c0-1.541-1.233-2.534-3.13-2.534-1.76,0-3.061,1.007-3.109,2.39h1.493a1.455,1.455,0,0,1,1.568-1.089c1.014,0,1.582.473,1.582,1.342v.589L23.4,7c-1.924.116-2.965.9-2.965,2.274A2.35,2.35,0,0,0,23.047,11.574Zm.445-1.267c-.883,0-1.445-.425-1.445-1.075,0-.671.541-1.061,1.575-1.123l1.842-.116v.6A1.8,1.8,0,0,1,23.493,10.307ZM29.108,14.4c1.616,0,2.376-.616,3.041-2.486L35.06,3.746H33.375l-1.952,6.307h-.034L29.437,3.746H27.7l2.808,7.773-.151.473a1.317,1.317,0,0,1-1.4,1.109c-.13,0-.384-.014-.486-.027v1.281A4.565,4.565,0,0,0,29.108,14.4Z" fill="#9c9c9c"/></svg>