<svg xmlns="http://www.w3.org/2000/svg"
     width="27.021"
     height="17.2"
     viewBox="0 0 27.021 17.2">
    <path d="M2.456,12.753H6.194v.9H2.456ZM19.034,9.894a2.148,2.148,0,0,1,1.73.879,2.166,2.166,0,1,1,0,2.586,2.164,2.164,0,1,1-1.73-3.465Zm6.482,6.44a.646.646,0,0,0,.633-.618V7.476H.842v8.241a.58.58,0,0,0,.18.44.631.631,0,0,0,.44.187Zm-24.05.86a1.44,1.44,0,0,1-1.047-.44A1.447,1.447,0,0,1-.02,15.71V1.482A1.478,1.478,0,0,1,1.466,0h24.05A1.486,1.486,0,0,1,27,1.482V15.716a1.469,1.469,0,0,1-.44,1.044,1.5,1.5,0,0,1-1.049.44H1.464ZM.842,3.2H26.149V1.48a.6.6,0,0,0-.191-.44.618.618,0,0,0-.44-.191H1.466a.616.616,0,0,0-.44.191.607.607,0,0,0-.18.44V3.2ZM7.92,12.753h6.22v.9H7.92Z" transform="translate(0.02)" fill="#505459" fill-rule="evenodd"/>
</svg>
