<svg xmlns="http://www.w3.org/2000/svg" width="36.346" height="36.345" viewBox="0 0 36.346 36.345"><path d="M36.345,18.173A18.173,18.173,0,1,0,15.333,36.124v-12.7H10.719V18.173h4.614v-4c0-4.555,2.713-7.07,6.864-7.07a27.671,27.671,0,0,1,4.068.359v4.472H23.974a2.626,2.626,0,0,0-2.961,2.838v3.409h5.04l-.805,5.253H21.01V36.124A18.177,18.177,0,0,0,36.345,18.173Z" fill="#505459"/><path d="M164.008,115.327l.805-5.253h-5.042v-3.409a2.628,2.628,0,0,1,2.961-2.838h2.291V99.359A27.671,27.671,0,0,0,160.956,99c-4.15,0-6.864,2.515-6.864,7.07v4H149.48v5.253h4.614v12.7a18.364,18.364,0,0,0,5.679,0v-12.7Z" transform="translate(-138.761 -91.901)" fill="#fff"/></svg>