<svg xmlns="http://www.w3.org/2000/svg" width="32" height="32">
    <path d="M27 2.5c-2.194 0-4 1.735-4 3.883 0 .623.259 1.253.605 1.902.347.65.798 1.308 1.245 1.906a28.797 28.797 0 0 0 1.785 2.15.5.5 0 0 0 .73 0s.893-.954 1.787-2.15c.447-.598.896-1.257 1.243-1.906.346-.649.605-1.279.605-1.902C31 4.235 29.194 2.5 27 2.5zm0 1c1.672 0 3 1.293 3 2.883 0 .311-.177.852-.486 1.431-.31.58-.738 1.207-1.166 1.78-.674.9-1.09 1.341-1.348 1.625-.257-.284-.676-.724-1.35-1.625-.428-.573-.852-1.2-1.162-1.78-.31-.579-.488-1.12-.488-1.431 0-1.59 1.328-2.883 3-2.883zm0 1.256c-.823 0-1.5.677-1.5 1.5 0 .822.677 1.5 1.5 1.5s1.5-.678 1.5-1.5c0-.823-.677-1.5-1.5-1.5zm0 1c.282 0 .5.218.5.5 0 .282-.218.5-.5.5a.493.493 0 0 1-.5-.5c0-.282.218-.5.5-.5zm-1.154 6.281-1.715 1.031.515.856 1.715-1.031-.515-.856zm-2.573 1.545-1.714 1.031.517.856 1.713-1.031-.516-.856zm-2.57 1.545-.502.3-.246.15.004.284.016 1.416 1-.011-.012-1.13.254-.152-.514-.857zm.283 3.139-.998.011.022 2 1-.013-.024-1.998zM5 19.5c-2.194 0-4 1.737-4 3.885 0 .623.259 1.251.605 1.9.347.65.796 1.31 1.243 1.908a27.97 27.97 0 0 0 1.787 2.147.5.5 0 0 0 .717.015l1.28-.367-.243-.85c.25-.303.484-.573.761-.945.447-.598.898-1.259 1.245-1.908.346-.649.605-1.277.605-1.9C9 21.237 7.194 19.5 5 19.5zm0 1c1.672 0 3 1.295 3 2.885 0 .311-.179.848-.488 1.427a14.66 14.66 0 0 1-1.162 1.782c-.673.9-1.092 1.339-1.35 1.623-.257-.284-.674-.723-1.348-1.623-.428-.573-.856-1.202-1.166-1.782-.31-.579-.486-1.116-.486-1.427 0-1.59 1.328-2.885 3-2.885zm16.021.768-1 .01.02 1.716h.219l.002.496h.785l-.006-.502-.02-1.72zM5 21.756c-.823 0-1.5.677-1.5 1.5 0 .822.677 1.5 1.5 1.5s1.5-.678 1.5-1.5c0-.823-.677-1.5-1.5-1.5zm14.258.734-2.002.01.004 1 2.002-.01-.004-1zm-3.002.01-1.998.01.004 1 1.998-.01-.004-1zM5 22.756c.282 0 .5.218.5.5 0 .282-.218.5-.5.5a.493.493 0 0 1-.5-.5c0-.282.218-.5.5-.5zm8.057.32L11.77 24.61l.767.643 1.285-1.533-.765-.643zm-1.93 2.299-1.283 1.533.765.643 1.286-1.533-.768-.643zM9.24 27.197l-1.922.553.276.96 1.924-.55-.278-.963z" color="#000" font-family="sans-serif" font-weight="400" overflow="visible" style="line-height:normal;text-indent:0;text-align:start;text-decoration-line:none;text-decoration-style:solid;text-decoration-color:#000;text-transform:none;block-progression:tb;white-space:normal;isolation:auto;mix-blend-mode:normal;solid-color:#000;solid-opacity:1"/>
</svg>
