<svg width="84" height="51" viewBox="0 0 84 51" fill="none" xmlns="http://www.w3.org/2000/svg">
<path d="M20.1419 12.1409C19.7366 12.223 19.3672 12.4297 19.0853 12.7322C18.8034 13.0348 18.6232 13.4178 18.5699 13.8279C18.2019 15.4279 18.9989 17.1279 20.2419 17.1279C21.3309 17.1279 22.0059 15.8549 22.0059 14.6429C21.9899 13.2069 21.1619 12.0639 20.1419 12.1409ZM16.6759 41.7409C16.6989 40.4529 15.9469 39.2489 14.9269 39.2409C13.8689 39.2329 13.0269 40.5409 13.1709 42.0779C13.1635 42.5669 13.3204 43.0442 13.6165 43.4335C13.9126 43.8227 14.3307 44.1014 14.8039 44.2249C15.8779 44.3189 16.6909 43.0769 16.6759 41.7429V41.7409Z" fill="black"/>
<path d="M10.5019 0.907949C10.5789 1.42895 10.6629 1.95095 10.7319 2.47995C10.9249 3.91995 11.1249 5.36095 11.2999 6.80795C11.4299 7.87395 11.5449 8.94795 11.6599 10.0209C11.7599 10.9719 11.8519 11.9209 11.9439 12.8739C12.0209 13.7739 12.0969 14.6739 12.1589 15.5739C12.1969 16.1179 12.2359 16.6739 12.2659 17.2149C12.3499 18.5569 12.5659 20.7349 12.7489 22.0539C12.9179 23.2429 13.1089 24.4239 13.3489 25.5819C13.4885 26.3007 13.6729 27.0101 13.9009 27.7059C13.9849 27.9589 14.0929 28.1969 14.2079 28.4879C14.2459 28.3809 14.2689 28.3189 14.2919 28.2499C14.564 27.3716 14.7844 26.4781 14.9519 25.5739C15.2199 24.1939 15.4119 22.79 15.5579 21.379C15.6039 20.95 15.6419 20.5199 15.6879 20.0789H18.7629C18.7629 20.2789 18.7629 20.4789 18.7709 20.6789C18.8089 21.9289 18.8319 23.1789 18.8939 24.4209C18.9605 25.9929 19.0939 27.5523 19.2939 29.0989C19.4702 30.6519 19.7712 32.1882 20.1939 33.6929C20.3009 34.0609 20.4389 34.4059 20.5699 34.7669C20.5929 34.8279 20.6239 34.8819 20.6539 34.9589C20.6919 34.8749 20.7229 34.8129 20.7539 34.7439C21.125 33.8569 21.4051 32.9346 21.5899 31.9909C21.8195 30.9378 21.9911 29.8729 22.1039 28.8009C22.2109 27.8009 22.3109 26.7919 22.3879 25.7869C22.4489 24.9969 22.4879 24.1999 22.5179 23.4019C22.5489 22.4019 22.5639 21.402 22.5869 20.396C22.5869 20.358 22.5949 20.2579 22.5949 20.2579L25.4949 20.3809C25.4949 20.3809 27.6499 23.4099 28.8229 24.7809C31.1919 27.6416 34.0478 30.0612 37.2589 31.9279C38.9644 32.8947 40.7865 33.6394 42.6809 34.1439C43.5761 34.3796 44.4852 34.5589 45.4029 34.6809C46.5957 34.8416 47.7999 34.9031 49.0029 34.8649C49.8675 34.8367 50.7301 34.7626 51.5869 34.6429C56.4576 33.8675 61.0822 31.9729 65.0969 29.108C65.9703 28.5099 66.8124 27.8674 67.6199 27.1829C67.6579 27.1449 67.7039 27.1139 67.7269 27.0829C67.4819 25.8709 67.2269 24.6749 66.9979 23.4709C66.7689 22.2669 66.5759 21.0479 66.4079 19.8209C66.5079 19.7829 69.5219 19.9819 69.6749 20.0429C69.9248 22.2001 70.3479 24.3336 70.9399 26.4229C71.4853 28.4495 72.2355 30.4153 73.1789 32.2899C74.2484 28.2137 74.6423 23.9897 74.3449 19.7859L77.3589 20.0159C77.5043 21.1569 77.7143 22.2888 77.9879 23.4059C78.2443 24.493 78.6091 25.5517 79.0769 26.566C79.1149 26.482 79.1539 26.42 79.1769 26.351C79.4901 25.6002 79.7078 24.813 79.8249 24.0079C79.9876 22.9451 80.0545 21.8698 80.0249 20.7949C80.0169 20.6259 80.0099 20.4499 80.0019 20.2889C80.1089 20.2429 82.7399 20.2279 82.9549 20.2739C82.9699 20.4809 82.9929 20.688 82.9929 20.903C83.0009 21.616 83.0159 22.3289 82.9929 23.0429C82.9579 23.8888 82.8684 24.7316 82.7249 25.566C82.2813 28.324 81.2847 30.9639 79.7949 33.3269C79.6719 33.5269 79.5339 33.7099 79.3949 33.9019C78.3357 32.9407 77.5208 31.7409 77.0179 30.4019C76.9799 30.6239 76.9489 30.8079 76.9179 30.9929C76.5767 33.1818 76.0007 35.3275 75.1999 37.3929C74.7715 38.4784 74.2562 39.5275 73.6589 40.5299C73.6359 40.5679 73.6129 40.5989 73.5819 40.6449C73.5509 40.6139 73.5129 40.5909 73.4819 40.5609C73.1623 40.2195 72.8722 39.8515 72.6149 39.4609C71.6232 37.9628 70.7929 36.3639 70.1379 34.6909C69.8379 33.9619 69.5779 33.203 69.2939 32.459C69.2709 32.405 69.2559 32.3519 69.2249 32.2829C69.1709 32.3209 69.1179 32.3599 69.0719 32.3979C67.0665 34.0686 64.9216 35.5644 62.6609 36.8689C60.4411 38.1512 58.0782 39.1678 55.6209 39.8979C54.7254 40.1582 53.8168 40.3709 52.8989 40.5349C52.0319 40.6879 51.1659 40.8029 50.2919 40.8719C49.1359 40.9651 47.9746 40.9701 46.8179 40.8869C43.6654 40.6656 40.5818 39.8588 37.7249 38.5079C33.5098 36.494 29.7496 33.642 26.6739 30.1259C26.2599 29.6659 25.8689 29.1749 25.4739 28.6999C25.4332 28.649 25.3898 28.6003 25.3439 28.5539C25.3209 28.7379 25.3059 28.8909 25.2829 29.0449C24.8828 33.0753 23.7879 37.006 22.0469 40.6629C21.6859 41.4065 21.2652 42.1195 20.7889 42.7949C20.7429 42.8559 20.6969 42.9179 20.6359 42.9869C20.5899 42.9409 20.5519 42.8949 20.5129 42.8489C19.7725 41.9152 19.1563 40.8893 18.6799 39.7969C18.0036 38.2419 17.4746 36.6268 17.0999 34.9729C16.9699 34.4289 16.8549 33.8729 16.7319 33.2939C16.7009 33.3709 16.6709 33.4319 16.6479 33.4939C16.3372 34.3371 15.9404 35.1461 15.4639 35.9079C15.2128 36.3113 14.9224 36.6889 14.5969 37.0349C14.5682 37.0675 14.5375 37.0982 14.5049 37.1269C14.4129 37.0499 14.3209 36.9739 14.2369 36.8889C13.6468 36.2794 13.1342 35.5992 12.7109 34.8639C12.5189 34.5499 12.3509 34.2199 12.1669 33.8979C12.1439 33.8519 12.1129 33.8059 12.0669 33.7289C12.0359 33.9589 12.0129 34.1509 11.9899 34.3429C11.7979 35.9429 11.5449 37.5329 11.1999 39.0819C10.8194 40.876 10.2582 42.627 9.52488 44.3079C9.18744 45.0736 8.77368 45.8033 8.28988 46.4859C8.07533 46.7812 7.83105 47.0536 7.56088 47.2989H7.53388C7.49588 47.2609 7.45688 47.2149 7.41888 47.1759C6.76559 46.5255 6.17745 45.8128 5.66288 45.0479C4.80182 43.6979 4.08521 42.261 3.52488 40.7609C2.65314 38.4272 2.01665 36.0122 1.62488 33.5519C1.41788 32.3169 1.24188 31.0749 1.12488 29.8099C1.04588 28.9279 0.969883 28.0379 0.907883 27.1479C0.853883 26.3959 0.838883 25.637 0.807883 24.886C0.792883 24.625 0.777883 24.365 0.754883 24.108V21.5579C0.777883 21.2359 0.792883 20.9139 0.815883 20.5989C0.823883 20.4839 0.830883 20.3689 0.838883 20.2459C1.93888 20.1769 3.01688 20.1159 4.10588 20.0459C4.10588 20.1069 4.11388 20.1529 4.11388 20.1919C4.11388 21.0819 4.11388 21.9789 4.12188 22.8679C4.12988 24.1259 4.18288 25.3829 4.25188 26.6329C4.32088 27.8329 4.42088 29.033 4.55888 30.233C4.71286 31.6468 4.93815 33.0519 5.23388 34.4429C5.49584 35.7344 5.87301 36.9998 6.36088 38.2239C6.57615 38.7634 6.84059 39.2819 7.15088 39.7729C7.17702 39.8123 7.20792 39.8482 7.24288 39.8799C7.31188 39.7109 7.38088 39.5579 7.44288 39.4049C7.82833 38.4115 8.12092 37.3844 8.31688 36.3369C8.60497 34.819 8.79967 33.2848 8.89988 31.7429C8.99188 30.4929 9.04588 29.2349 9.06088 27.9849C9.09188 26.1669 9.06888 24.342 8.99988 22.525C8.96188 21.425 8.89988 20.3159 8.83888 19.2199C8.78488 18.2689 8.72388 17.3199 8.64688 16.3669C8.57022 15.3856 8.48588 14.4039 8.39388 13.4219C8.28688 12.3019 8.18688 11.1749 8.06388 10.0549C7.94088 8.85495 7.80288 7.63195 7.64988 6.41195C7.48088 5.06195 7.28988 3.71995 7.10588 2.37095C7.07488 2.13295 7.03688 1.90295 7.00588 1.64995C7.19688 1.60795 7.37288 1.56495 7.55688 1.52695C8.36988 1.35795 9.18288 1.18895 10.0039 1.01295C10.1419 0.981949 10.2799 0.935949 10.4179 0.897949C10.4452 0.905399 10.4735 0.908769 10.5019 0.907949V0.907949Z" fill="black"/>
<path d="M20.1368 12.1409C21.1648 12.0639 21.9928 13.2069 22.0008 14.6409C22.0088 15.8409 21.3338 17.1259 20.2368 17.1259C18.9948 17.1259 18.1968 15.4309 18.5648 13.8259C18.6186 13.4163 18.7991 13.0337 19.0809 12.7316C19.3627 12.4295 19.7319 12.223 20.1368 12.1409Z" fill="black"/>
<path d="M16.676 41.7422C16.691 43.0692 15.886 44.3192 14.805 44.2272C14.3324 44.1026 13.915 43.8236 13.6191 43.4346C13.3232 43.0456 13.1658 42.5689 13.172 42.0802C13.026 40.5462 13.872 39.2432 14.928 39.2432C15.939 39.2522 16.699 40.4522 16.676 41.7422Z" fill="black"/>
<path d="M47.8879 48.5829L48.9229 48.3609C49.0456 48.9436 49.5209 49.2349 50.3489 49.2349C50.6561 49.2523 50.9613 49.1748 51.2229 49.0129C51.3154 48.9512 51.3916 48.868 51.445 48.7705C51.4985 48.673 51.5276 48.5641 51.5299 48.4529C51.5303 48.294 51.4821 48.1388 51.3919 48.0079C51.239 47.8349 51.0302 47.7209 50.8019 47.6859L49.6749 47.3949C49.3711 47.3294 49.0807 47.2128 48.8159 47.0499C48.6231 46.9101 48.4698 46.7227 48.3709 46.5059C48.2609 46.2733 48.2032 46.0193 48.2019 45.7619C48.1941 45.5195 48.2435 45.2786 48.3462 45.0588C48.4489 44.839 48.6019 44.6465 48.7929 44.4969C49.2207 44.1655 49.7524 43.9971 50.2929 44.0219C50.7662 44.0127 51.2337 44.1264 51.6499 44.3519C51.8354 44.4473 51.9987 44.5805 52.1294 44.7429C52.2602 44.9054 52.3554 45.0934 52.4089 45.2949L51.3969 45.5479C51.3183 45.3295 51.1676 45.1444 50.9696 45.0232C50.7716 44.9019 50.5382 44.8517 50.3079 44.8809C50.0389 44.8634 49.7718 44.9362 49.5489 45.0879C49.4662 45.1487 49.3993 45.2285 49.3539 45.3206C49.3084 45.4126 49.2858 45.5143 49.2879 45.6169C49.2879 45.9539 49.5639 46.1919 50.1089 46.3229L51.1089 46.5759C51.582 46.6506 52.0136 46.8896 52.3279 47.2509C52.5331 47.5398 52.6429 47.8856 52.6419 48.2399C52.6528 48.5018 52.5998 48.7625 52.4877 48.9994C52.3755 49.2363 52.2074 49.4424 51.9979 49.5999C51.5035 49.9489 50.9076 50.1247 50.3029 50.0999C49.7684 50.1121 49.2398 49.9853 48.7689 49.7319C48.5521 49.6098 48.3623 49.445 48.2109 49.2476C48.0595 49.0501 47.9496 48.824 47.8879 48.5829Z" fill="#1E1E1C"/>
<path d="M55.212 50.0938C54.9266 50.109 54.6419 50.053 54.3836 49.9308C54.1252 49.8086 53.9013 49.6241 53.732 49.3938C53.3936 48.9298 53.2159 48.368 53.226 47.7938C53.2038 47.2046 53.4065 46.6291 53.793 46.1838C53.9774 45.9725 54.2067 45.805 54.4642 45.6936C54.7216 45.5821 55.0007 45.5296 55.281 45.5398C55.5529 45.5319 55.8231 45.5842 56.0724 45.6929C56.3217 45.8017 56.5439 45.9642 56.723 46.1688C57.0933 46.6379 57.2934 47.2188 57.2907 47.8164C57.2879 48.4141 57.0825 48.9931 56.708 49.4588C56.5182 49.665 56.2866 49.8284 56.0286 49.9379C55.7706 50.0474 55.4922 50.1005 55.212 50.0938ZM55.25 49.2808C55.91 49.2808 56.25 48.7898 56.25 47.8008C56.2696 47.433 56.1873 47.0668 56.012 46.7428C55.9376 46.618 55.8302 46.5161 55.7015 46.4485C55.5729 46.3809 55.428 46.3502 55.283 46.3598C55.1321 46.3516 54.9819 46.3844 54.8482 46.4549C54.7145 46.5253 54.6025 46.6307 54.524 46.7598C54.3475 47.083 54.2618 47.4479 54.276 47.8158C54.2509 48.1969 54.3419 48.5765 54.537 48.9048C54.6125 49.0247 54.7182 49.1226 54.8436 49.1886C54.9689 49.2546 55.1094 49.2864 55.251 49.2808H55.25Z" fill="#1E1E1C"/>
<path d="M69.4988 50.0938C69.2134 50.109 68.9287 50.053 68.6704 49.9308C68.412 49.8086 68.1881 49.6241 68.0188 49.3938C67.6804 48.9298 67.5028 48.368 67.5128 47.7938C67.4909 47.2045 67.694 46.6289 68.0808 46.1838C68.2653 45.9725 68.4946 45.805 68.752 45.6936C69.0094 45.5821 69.2885 45.5296 69.5688 45.5398C69.8407 45.5319 70.1109 45.5842 70.3602 45.6929C70.6095 45.8017 70.8317 45.9642 71.0108 46.1688C71.3811 46.6379 71.5812 47.2188 71.5785 47.8164C71.5758 48.4141 71.3704 48.9931 70.9958 49.4588C70.8059 49.6652 70.5741 49.8286 70.3159 49.9381C70.0578 50.0476 69.7792 50.1007 69.4988 50.0938ZM69.5368 49.2808C70.1968 49.2808 70.5368 48.7898 70.5368 47.8008C70.5565 47.433 70.4741 47.0668 70.2988 46.7428C70.2245 46.618 70.117 46.5161 69.9883 46.4485C69.8597 46.3809 69.7148 46.3502 69.5698 46.3598C69.419 46.3516 69.2687 46.3844 69.135 46.4549C69.0014 46.5253 68.8893 46.6307 68.8108 46.7598C68.635 47.0839 68.5504 47.4495 68.5658 47.8178C68.5408 48.1989 68.6318 48.5785 68.8268 48.9068C68.9019 49.0251 69.0064 49.1219 69.1302 49.1875C69.254 49.253 69.3928 49.2852 69.5328 49.2808H69.5368Z" fill="#1E1E1C"/>
<path d="M61.799 50.0009H60.817V47.2709C60.8337 47.0363 60.7624 46.8038 60.617 46.6189C60.5574 46.5496 60.4831 46.4944 60.3996 46.4573C60.3161 46.4201 60.2254 46.4019 60.134 46.4039C60.0035 46.4065 59.8753 46.438 59.7585 46.4963C59.6418 46.5546 59.5395 46.6382 59.459 46.7409C59.2445 47.0328 59.1412 47.3917 59.168 47.7529V49.9919H58.187V45.6299H59.087V46.6379C59.401 45.9019 59.839 45.5379 60.406 45.5379C60.767 45.5302 61.1176 45.6587 61.388 45.8979C61.5415 46.0696 61.6569 46.2717 61.7269 46.4911C61.7969 46.7104 61.8197 46.9421 61.794 47.1709V50.0009H61.799Z" fill="#1E1E1C"/>
<path d="M63.425 50.0011H62.98V44.1011H63.962V46.2331C64.0914 45.9747 64.2841 45.7532 64.522 45.5891C64.7244 45.4802 64.9523 45.4274 65.182 45.4361C65.4143 45.434 65.6437 45.488 65.8507 45.5935C66.0577 45.699 66.2362 45.8529 66.371 46.0421C66.7107 46.5365 66.8754 47.1303 66.839 47.7291C66.8566 48.321 66.6934 48.9043 66.371 49.4011C66.2187 49.6234 66.0123 49.8034 65.7712 49.9239C65.5302 50.0445 65.2624 50.1017 64.9931 50.0902C64.7238 50.0787 64.4619 49.9989 64.232 49.8582C64.0021 49.7175 63.8118 49.5206 63.679 49.2861L63.425 50.0011ZM63.962 48.1371C63.936 48.445 64.0262 48.7514 64.215 48.9961C64.297 49.0868 64.3979 49.1585 64.5105 49.2061C64.6231 49.2538 64.7448 49.2763 64.867 49.2721C64.9932 49.273 65.118 49.2444 65.2312 49.1885C65.3444 49.1325 65.443 49.0509 65.519 48.9501C65.7374 48.5715 65.8364 48.1358 65.803 47.7001C65.8256 47.3342 65.743 46.9695 65.565 46.6491C65.4963 46.5343 65.3983 46.4397 65.2811 46.3751C65.164 46.3104 65.0318 46.278 64.898 46.2811C64.7703 46.2795 64.6439 46.3069 64.5283 46.3613C64.4128 46.4157 64.3111 46.4956 64.231 46.5951C64.0407 46.8511 63.9481 47.1668 63.97 47.4851V48.1371H63.962Z" fill="#1E1E1C"/>
<path d="M73.502 50.0011H72.52V44.1011H73.502V50.0011Z" fill="#1E1E1C"/>
</svg>
