<svg xmlns="http://www.w3.org/2000/svg" width="43.17" height="14.395" viewBox="0 0 43.17 14.395"><g opacity="0.61"><rect width="18.261" height="6.083" transform="translate(0 8.301)" fill="#ddd"/><rect width="18.261" height="6.089" transform="translate(0 0)" fill="#c4bcbc"/><path d="M619.028,138.653l-.081.016a2.664,2.664,0,0,1-.591.076c-.477,0-1.041-.244-1.041-1.393,0-.591.1-1.377.987-1.377h.005a2.672,2.672,0,0,1,.651.125l.07.022v2.532Zm.146-5.731-.146.027v2.125l-.13-.038-.038-.011a3,3,0,0,0-.808-.141c-1.778,0-2.152,1.345-2.152,2.472a2.193,2.193,0,0,0,2.38,2.434,4.825,4.825,0,0,0,1.589-.222.7.7,0,0,0,.6-.77v-6.1c-.423.076-.862.152-1.29.222" transform="translate(-582.506 -125.505)" fill="#ddd"/><path d="M717.663,176.333l-.076.022-.271.07a2.826,2.826,0,0,1-.656.1c-.417,0-.667-.206-.667-.558,0-.228.1-.613.786-.613h.884Zm-.624-3.833a6,6,0,0,0-1.811.314l-.455.136.152,1.03.445-.146a5.228,5.228,0,0,1,1.48-.249c.2,0,.792,0,.792.645v.282h-.829c-1.513,0-2.212.483-2.212,1.518,0,.884.645,1.415,1.73,1.415a5.592,5.592,0,0,0,1.2-.163l.022-.005.022.005.135.022c.423.076.862.152,1.291.233v-3.383c0-1.1-.661-1.654-1.963-1.654" transform="translate(-675.855 -163.147)" fill="#ddd"/><path d="M523.363,176.333l-.076.022-.271.07a2.785,2.785,0,0,1-.656.1c-.417,0-.667-.206-.667-.558,0-.228.1-.613.781-.613h.884l.005.976Zm-.618-3.833a5.974,5.974,0,0,0-1.811.314l-.455.136.152,1.03.445-.146a5.228,5.228,0,0,1,1.48-.249c.2,0,.792,0,.792.645v.282h-.83c-1.513,0-2.218.483-2.218,1.518,0,.884.645,1.415,1.735,1.415a5.594,5.594,0,0,0,1.2-.163l.022-.005.022.005.13.022c.428.076.862.152,1.29.239v-3.383c.005-1.106-.656-1.659-1.957-1.659" transform="translate(-492.09 -163.147)" fill="#ddd"/><path d="M382.786,172.605a3.659,3.659,0,0,0-1.469.325l-.054.027-.049-.038a2.224,2.224,0,0,0-1.317-.32,5.39,5.39,0,0,0-1.556.233c-.461.141-.64.363-.64.781v3.866h1.442v-3.573l.07-.022a1.836,1.836,0,0,1,.634-.114.57.57,0,0,1,.629.656v3.058H381.9v-3.118a1.051,1.051,0,0,0-.043-.314l-.049-.092.1-.043a1.71,1.71,0,0,1,.7-.146.574.574,0,0,1,.629.656v3.058h1.415v-3.2c0-1.133-.607-1.681-1.865-1.681" transform="translate(-357.221 -163.242)" fill="#ddd"/><path d="M590.15,3.969a4.921,4.921,0,0,1-.841-.076l-.081-.016V1.789a1.018,1.018,0,0,0-.038-.3l-.043-.087.092-.038c.022-.011.043-.016.07-.027l.016-.011.1-.033a.137.137,0,0,1,.038-.011A3.367,3.367,0,0,1,590.2,1.2h.005c.884,0,.987.786.987,1.377-.006,1.149-.575,1.393-1.046,1.393M590.144,0h-.038a2.555,2.555,0,0,0-1.984.672,1.357,1.357,0,0,0-.26.808h0V3.633a.639.639,0,0,1-.043.271L587.77,4h-2.619V2.5h-.005A2.231,2.231,0,0,0,582.83.054h-1.318c-.054.385-.1.656-.152,1.041h1.312c.689,0,1.052.586,1.052,1.486V4.088l-.092-.049A1,1,0,0,0,583.324,4h-2.266c-.043.287-.1.661-.157,1.036h6.967c.239-.049.515-.092.754-.13a3.924,3.924,0,0,0,1.458.266,2.379,2.379,0,0,0,2.494-2.575A2.391,2.391,0,0,0,590.144,0" transform="translate(-549.404 0)" fill="#ddd"/><path d="M385.746,6.706h.065c1.513,0,2.218-.5,2.218-1.73a1.584,1.584,0,0,0-1.73-1.589h-1.393a.6.6,0,0,1-.667-.64c0-.271.1-.607.786-.607h3.047c.065-.4.1-.645.157-1.041h-3.166c-1.475,0-2.218.618-2.218,1.648s.645,1.551,1.73,1.551h1.393a.658.658,0,0,1,.667.678.681.681,0,0,1-.781.7h-.233l-4.462-.011h-.813c-.689,0-1.171-.39-1.171-1.3V3.746c0-.943.374-1.529,1.171-1.529h1.323c.06-.4.1-.656.152-1.036h-1.805A2.262,2.262,0,0,0,377.7,3.665h0v.7A2.14,2.14,0,0,0,380.015,6.7h1.317l2.418.005h2Z" transform="translate(-357.221 -1.04)" fill="#ddd"/></g></svg>