<svg xmlns="http://www.w3.org/2000/svg" width="27.922" height="16.812" viewBox="0 0 27.922 16.812"><g opacity="0.61"><path d="M82.947,61.517a8.249,8.249,0,0,0,5.6,2.179,8.406,8.406,0,0,0,0-16.811,8.248,8.248,0,0,0-5.6,2.179,8.411,8.411,0,0,0,0,12.453Z" transform="translate(-68.979 -46.885)" fill="#ddd" fill-rule="evenodd"/><path d="M172.041,122.68a.259.259,0,0,1,.26-.26.262.262,0,0,1,.274.26.265.265,0,0,1-.274.274A.262.262,0,0,1,172.041,122.68Zm.26.217a.222.222,0,0,0,.216-.217.21.21,0,0,0-.216-.2.206.206,0,0,0-.2.2A.22.22,0,0,0,172.3,122.9Zm-.029-.087h-.058v-.245h.1a.085.085,0,0,1,.058.015c.029.014.029.029.029.058s-.014.058-.043.058l.058.115h-.072l-.029-.1h-.043v-.043h.058c.014,0,.014-.015.014-.029s0-.015-.014-.029h-.058Z" transform="translate(-145.23 -109.592)" fill="#e9b040" fill-rule="evenodd"/><path d="M30.841,54.4c-.029-.3-.087-.592-.144-.895H25.588a8.8,8.8,0,0,1,.231-.88h4.632q-.151-.456-.346-.895H26.18q.217-.458.476-.895h2.958a7.592,7.592,0,0,0-.635-.88H27.291a8.3,8.3,0,0,1,.851-.895,8.405,8.405,0,1,0,0,12.453,8,8,0,0,0,.837-.88H27.291a9.952,9.952,0,0,1-.635-.895h2.958a6.71,6.71,0,0,0,.491-.895H26.18a9.39,9.39,0,0,1-.361-.88h4.632a8.992,8.992,0,0,0,.245-.895,8.876,8.876,0,0,0,.144-.895,8.766,8.766,0,0,0,.043-.88C30.884,54.995,30.87,54.692,30.841,54.4Z" transform="translate(-14.174 -46.885)" fill="#c4bcbc" fill-rule="evenodd"/><path d="M172.041,106.552a.262.262,0,0,1,.26-.274.265.265,0,0,1,.274.274.267.267,0,1,1-.534,0Zm.26.2a.2.2,0,1,0,0-.4.2.2,0,1,0,0,.4Zm-.029-.087h-.058v-.231h.159c.029.015.029.043.029.072a.078.078,0,0,1-.043.058l.058.1h-.072l-.029-.087h-.043v-.043h.029c.014,0,.029,0,.029-.015s.014-.014.014-.029a.014.014,0,0,0-.014-.014c0-.015-.015,0-.029,0h-.029Z" transform="translate(-145.23 -96.191)" fill="#fff" fill-rule="evenodd"/><path d="M27.909,89.6a2.669,2.669,0,0,1-.678.115c-.433,0-.693-.274-.693-.765a2.593,2.593,0,0,1,.029-.317l.058-.332.043-.274.39-2.366h.866l-.1.52h.548l-.13.866h-.548l-.231,1.414a.664.664,0,0,0-.014.144c0,.188.087.26.3.26a1.581,1.581,0,0,0,.274-.029l-.115.765Zm2.8-.029a3.4,3.4,0,0,1-.924.13,1.386,1.386,0,0,1-1.544-1.544c0-1.2.664-2.064,1.587-2.064a1.156,1.156,0,0,1,1.212,1.255,3.979,3.979,0,0,1-.1.852h-1.8a.406.406,0,0,0-.014.115c0,.4.274.606.794.606a2.176,2.176,0,0,0,.938-.216Zm-.534-2.063v-.173a.4.4,0,0,0-.433-.447c-.289,0-.491.216-.577.62h1.01Zm-9.192,2.135h-.895l.52-3.275-1.169,3.275h-.62l-.072-3.261L18.2,89.647h-.88l.707-4.257h1.313l.029,2.626.88-2.626h1.443ZM23.161,88.1a.82.82,0,0,0-.173-.015c-.52,0-.779.2-.779.52a.327.327,0,0,0,.332.361C22.974,88.969,23.147,88.608,23.161,88.1Zm.721,1.544H23.1l.014-.361a1.058,1.058,0,0,1-.952.418.875.875,0,0,1-.808-.952,1.527,1.527,0,0,1,.072-.447c.144-.534.678-.866,1.5-.88.1,0,.26,0,.4.015a.768.768,0,0,0,.029-.231c0-.231-.187-.3-.606-.3a2.408,2.408,0,0,0-.75.115l-.13.029-.058.014.13-.779A3.387,3.387,0,0,1,23,86.1c.779,0,1.2.361,1.2,1.024a3.273,3.273,0,0,1-.043.678l-.2,1.241-.029.217-.014.173-.014.115Zm11.183-3.434a1.735,1.735,0,0,1,.808.231l.159-.924a2,2,0,0,0-.231-.087l-.361-.1a2.563,2.563,0,0,0-1.4.13,2.712,2.712,0,0,0-.534.462l-.115-.029-.924.649.043-.361h-.953L31,89.647h.909l.332-1.861s.13-.26.188-.346a.526.526,0,0,1,.5-.217H33a4.657,4.657,0,0,0-.043.664,1.619,1.619,0,0,0,1.616,1.833,2.916,2.916,0,0,0,.794-.115l.159-.981a1.63,1.63,0,0,1-.765.231c-.534,0-.852-.4-.852-1.039C33.911,86.876,34.388,86.213,35.066,86.213Zm7.662-.822-.2,1.212a.934.934,0,0,0-.823-.491,1.361,1.361,0,0,0-1.2.794v-.014l-.577-.346.058-.361H39.02l-.548,3.463h.895l.3-1.861s.231-.26.289-.346a.564.564,0,0,1,.4-.217,3.121,3.121,0,0,0-.159,1.025c0,.866.447,1.443,1.111,1.443a1.049,1.049,0,0,0,.837-.39l-.043.346h.852l.693-4.257h-.924Zm-1.111,3.434c-.3,0-.462-.231-.462-.678,0-.678.289-1.169.707-1.169.317,0,.476.245.476.678C42.339,88.348,42.05,88.825,41.617,88.825Zm-4.17-.721a.82.82,0,0,0-.173-.015c-.52,0-.78.2-.78.52a.327.327,0,0,0,.332.361C37.259,88.969,37.433,88.608,37.447,88.1Zm.721,1.544h-.794l.029-.361a1.058,1.058,0,0,1-.952.418.878.878,0,0,1-.837-.952c0-.822.62-1.327,1.6-1.327a3.742,3.742,0,0,1,.39.015.888.888,0,0,0,.043-.231c0-.231-.188-.3-.621-.3a2.477,2.477,0,0,0-.75.115l-.115.029-.058.014.13-.779a3.389,3.389,0,0,1,1.053-.187c.779,0,1.183.361,1.183,1.024a2.485,2.485,0,0,1-.043.678l-.188,1.241-.029.217-.029.173-.014.115v.1h0Zm-12.4-2.727a4.28,4.28,0,0,1,.678.058l.13-.808c-.26-.029-.606-.072-.808-.072-1.01,0-1.342.548-1.342,1.183a.986.986,0,0,0,.678.952c.361.173.418.2.418.361,0,.216-.187.346-.534.346a2.416,2.416,0,0,1-.823-.144l-.1.793.014.015.173.029a2.274,2.274,0,0,0,.231.043c.216.015.4.029.52.029,1.01,0,1.429-.389,1.429-1.154a.985.985,0,0,0-.678-.966c-.39-.173-.433-.2-.433-.361S25.5,86.92,25.773,86.92Z" transform="translate(-16.783 -78.767)" fill="none" fill-rule="evenodd"/><path d="M37.619,83.977l-.159.924a1.733,1.733,0,0,0-.808-.231c-.678,0-1.154.664-1.154,1.6,0,.649.317,1.039.852,1.039a1.772,1.772,0,0,0,.765-.216l-.159.966a3.006,3.006,0,0,1-.794.13c-.981,0-1.587-.707-1.587-1.847,0-1.515.837-2.583,2.035-2.583a1.775,1.775,0,0,1,.418.043l.361.087C37.5,83.934,37.532,83.949,37.619,83.977Zm-2.915.635h-.087c-.3,0-.476.144-.75.563l.087-.534h-.823L32.568,88.1h.909c.332-2.121.418-2.482.851-2.482h.058a3.628,3.628,0,0,1,.346-1ZM29.48,88.061a1.872,1.872,0,0,1-.649.115.667.667,0,0,1-.722-.765,2.379,2.379,0,0,1,.029-.3l.058-.346.043-.274.39-2.367h.895l-.1.52h.462l-.115.851h-.462l-.245,1.443a.542.542,0,0,0-.014.144c0,.173.087.245.3.245A.6.6,0,0,0,29.6,87.3ZM26,85.738a1.01,1.01,0,0,0,.678.967c.375.173.433.231.433.375,0,.217-.159.317-.52.317a2.7,2.7,0,0,1-.808-.13l-.13.793.043.015.159.029a.948.948,0,0,0,.245.029,3.335,3.335,0,0,0,.491.029c.952,0,1.4-.361,1.4-1.154a.96.96,0,0,0-.635-.967c-.39-.173-.433-.216-.433-.375,0-.187.159-.274.447-.274a5.632,5.632,0,0,1,.649.043l.13-.794a5.226,5.226,0,0,0-.794-.072C26.349,84.569,25.988,85.1,26,85.738ZM44.531,88.1H43.68l.043-.332a1.081,1.081,0,0,1-.837.375c-.664,0-1.1-.562-1.1-1.428,0-1.155.678-2.136,1.472-2.136a1.037,1.037,0,0,1,.866.476l.2-1.212h.895L44.531,88.1ZM43.2,87.3c.419,0,.707-.491.707-1.169,0-.447-.159-.678-.476-.678-.4,0-.707.476-.707,1.155Q42.727,87.3,43.2,87.3Zm-10.952.736a2.956,2.956,0,0,1-.938.144,1.375,1.375,0,0,1-1.53-1.558c0-1.183.664-2.063,1.573-2.063a1.159,1.159,0,0,1,1.226,1.255,3.488,3.488,0,0,1-.115.866H30.678a.283.283,0,0,0-.014.1c0,.4.274.606.794.606a1.985,1.985,0,0,0,.938-.217Zm-.505-2.063V85.8a.4.4,0,0,0-.433-.447c-.289,0-.491.217-.577.62ZM22.554,88.1h-.895l.52-3.276L21.01,88.1h-.621l-.072-3.247L19.769,88.1h-.837l.707-4.257h1.3l.043,2.641.866-2.641h1.414L22.554,88.1Zm2.237-1.544c-.087,0-.13-.014-.2-.014-.505,0-.765.188-.765.534a.3.3,0,0,0,.317.346C24.516,87.426,24.776,87.08,24.791,86.56Zm.664,1.544H24.7l.014-.361a1.125,1.125,0,0,1-.952.419.838.838,0,0,1-.823-.938c0-.851.577-1.342,1.587-1.342.1,0,.231.014.375.029a.727.727,0,0,0,.029-.216c0-.231-.159-.317-.577-.317a2.976,2.976,0,0,0-.75.087l-.13.043-.087.014.13-.779a3.629,3.629,0,0,1,1.082-.173c.779,0,1.2.346,1.2,1.01a4.364,4.364,0,0,1-.072.693l-.2,1.227-.029.216-.014.173-.014.13-.014.086ZM39.077,86.56c-.1,0-.144-.014-.2-.014-.52,0-.78.188-.78.534a.315.315,0,0,0,.332.346C38.788,87.426,39.062,87.08,39.077,86.56ZM39.74,88.1h-.75L39,87.744a1.124,1.124,0,0,1-.952.419.838.838,0,0,1-.823-.938c0-.851.577-1.342,1.587-1.342.1,0,.231.014.361.029a.918.918,0,0,0,.043-.216c0-.231-.159-.317-.577-.317a3.1,3.1,0,0,0-.765.087l-.115.043-.087.014.13-.779a3.63,3.63,0,0,1,1.082-.173c.779,0,1.183.346,1.183,1.01a3.1,3.1,0,0,1-.072.693L39.812,87.5l-.029.216-.029.173-.014.13V88.1h0Zm2.424-3.492h-.087c-.3,0-.476.144-.75.563l.087-.534h-.823L40.043,88.1h.895c.332-2.121.419-2.482.852-2.482h.058a3.628,3.628,0,0,1,.346-1Z" transform="translate(-18.124 -77.498)" fill="#fff" fill-rule="evenodd"/></g></svg>