<svg xmlns="http://www.w3.org/2000/svg" width="48.961" height="14.396" viewBox="0 0 48.961 14.396"><path d="M322.862,224.071v-7.6h1.29v.61a2.081,2.081,0,0,1,1.7-.757,2.914,2.914,0,0,1,0,5.782,2.082,2.082,0,0,1-1.7-.771v2.74h-1.29Zm1.29-5.572v1.4a1.6,1.6,0,0,0,1.472.981c.855,0,1.43-.638,1.43-1.689s-.575-1.668-1.43-1.668a1.578,1.578,0,0,0-1.472.974" transform="translate(-291.107 -213.44)" fill="#787373"/><path d="M381.415,221.527a1.62,1.62,0,0,1,1.528-1.689l2.194-.28v-.273a.441.441,0,0,0-.477-.5h-2.754v-1.17h2.8c1.114,0,1.724.547,1.724,1.514v3.96h-1.3v-.666a2.112,2.112,0,0,1-1.808.834,1.728,1.728,0,0,1-1.906-1.724m2.222.673a1.605,1.605,0,0,0,1.493-.918v-.687l-1.675.231c-.463.063-.722.308-.722.708,0,.427.329.666.9.666" transform="translate(-343.289 -214.589)" fill="#787373"/><path d="M434.158,224.049h.939a.6.6,0,0,0,.638-.484l.168-.484-1.99-5.473h1.346l1.24,3.813h.028l1.184-3.813h1.325l-2.18,6.286c-.294.862-.687,1.325-1.647,1.325h-1.051v-1.17Z" transform="translate(-390.075 -214.588)" fill="#787373"/><path d="M35.731,204.243a5.022,5.022,0,0,0,3.546-1.254,3.251,3.251,0,0,0,.967-2.355,3.049,3.049,0,0,0-.9-2.194,4.687,4.687,0,0,0-2.467-1.212l-1.724-.336c-.715-.133-1.121-.491-1.121-.988,0-.652.631-1.1,1.64-1.1a2.128,2.128,0,0,1,1.528.561,1.7,1.7,0,0,1,.427.918l2.488-.561a3.072,3.072,0,0,0-.918-1.864,5.026,5.026,0,0,0-3.553-1.318,4.863,4.863,0,0,0-3.3,1.163,3.274,3.274,0,0,0-1.051,2.425,2.788,2.788,0,0,0,.806,2.06,4.911,4.911,0,0,0,2.355,1.191l1.7.406c.855.2,1.233.519,1.233,1.079,0,.694-.631,1.1-1.661,1.1a2.307,2.307,0,0,1-1.724-.652,1.566,1.566,0,0,1-.449-1.03L31,200.844a3.2,3.2,0,0,0,.967,1.976,5.191,5.191,0,0,0,3.764,1.423m18.937,0a5.32,5.32,0,0,0,3.813-1.458,4.984,4.984,0,0,0,1.346-2.264l-2.621-.876a2.49,2.49,0,0,1-.694,1.163,2.549,2.549,0,0,1-1.843.694,2.837,2.837,0,0,1-2-.806,3.251,3.251,0,0,1-.834-2.313,3.216,3.216,0,0,1,.834-2.313,2.728,2.728,0,0,1,1.976-.785,2.378,2.378,0,0,1,1.773.673,2.855,2.855,0,0,1,.673,1.191l2.67-.9a5.1,5.1,0,0,0-1.254-2.222,5.46,5.46,0,0,0-3.925-1.5,5.667,5.667,0,0,0-4.058,1.64,6.132,6.132,0,0,0,.042,8.438,5.729,5.729,0,0,0,4.1,1.633m-9.062,0a3.748,3.748,0,0,0,2.355-.673v-2.425a2.591,2.591,0,0,1-1.507.449A1.258,1.258,0,0,1,45,200.115V189.848H42.031v3.028h5.922v2.873H42.031v5.095a3.427,3.427,0,0,0,.876,2.446,3.754,3.754,0,0,0,2.7.953" transform="translate(-31 -189.848)" fill="#878787"/></svg>