<svg xmlns="http://www.w3.org/2000/svg" width="34.818" height="14.395" viewBox="0 0 34.818 14.395"><path d="M1.111-.05h32.5a1.088,1.088,0,0,1,1.161.984V13.361a1.088,1.088,0,0,1-1.161.984H1.111A1.088,1.088,0,0,1-.05,13.361V.934A1.088,1.088,0,0,1,1.111-.05Z" transform="translate(0.05 0.05)" fill="#9c9c9c"/><g transform="translate(5.397 2.7)"><path d="M18.648,40.814a.175.175,0,0,0-.175.175.624.624,0,1,1-1.246,0V39.781H18.34a.174.174,0,0,0,0-.349H17.227v-.921a.175.175,0,0,0-.349,0v2.478a.973.973,0,1,0,1.944,0,.175.175,0,0,0-.175-.175" transform="translate(-16.878 -35.718)" fill="#fcfcfc"/><path d="M93.978,44.973a.174.174,0,0,0-.025-.245.937.937,0,0,0-.6-.215,1,1,0,0,0-.972,1.014v1.607a.174.174,0,0,0,.349,0V45.526a.646.646,0,0,1,.623-.666.593.593,0,0,1,.378.137.175.175,0,0,0,.245-.025" transform="translate(-81.921 -41.038)" fill="#fcfcfc"/><path d="M51.7,44.511a.961.961,0,0,0-.8.435.961.961,0,0,0-.8-.435,1,1,0,0,0-.972,1.015v1.607a.175.175,0,0,0,.349,0V45.526a.625.625,0,1,1,1.246,0v1.607a.175.175,0,0,0,.349,0V45.526a.624.624,0,1,1,1.246,0v1.607a.175.175,0,0,0,.349,0V45.526a1,1,0,0,0-.972-1.015" transform="translate(-44.661 -41.038)" fill="#fcfcfc"/><path d="M33.765,44.512a.936.936,0,0,0-.6.215.174.174,0,0,0,.221.27.591.591,0,0,1,.378-.137c.02,0,.04,0,.06,0l.019,0,.039.007.022.005.035.009.022.007.033.013.021.009.033.017.018.01.039.025.009.007a.561.561,0,0,1,.045.036l.012.011.03.029.014.016.024.028.014.018.021.03.012.02c.007.01.013.021.019.033l.01.019c.007.013.012.026.018.039l.007.015c.007.019.014.038.02.057l0,.012c0,.014.007.027.01.042h-.652a.929.929,0,0,0-.928.928,1,1,0,0,0,.972,1.015,1.28,1.28,0,0,0,.624-.17.174.174,0,1,0,.349,0V45.526a1,1,0,0,0-.972-1.014m-.623,1.8a.58.58,0,0,1,.579-.579h.667v1a1.031,1.031,0,0,1-.623.241.646.646,0,0,1-.623-.666" transform="translate(-30.588 -41.038)" fill="#fcfcfc"/><path d="M77.126,44.512a.937.937,0,0,0-.6.215.175.175,0,1,0,.221.27.592.592,0,0,1,.378-.137c.02,0,.04,0,.06,0l.019,0,.039.007.022.005.035.009.022.007.033.013.021.009.033.017.018.01.039.025.01.007a.568.568,0,0,1,.045.036l.012.011.03.029.014.016.024.028.014.018.021.03.012.02c.007.01.013.021.019.032l.01.02c.007.013.012.026.018.039l.007.015c.007.019.014.038.02.057l0,.012q.005.02.01.042h-.651a.929.929,0,0,0-.928.928,1,1,0,0,0,.972,1.014,1.28,1.28,0,0,0,.624-.17.174.174,0,1,0,.349,0V45.526a1,1,0,0,0-.972-1.015m-.623,1.8a.58.58,0,0,1,.579-.579h.667v1a1.031,1.031,0,0,1-.623.241.646.646,0,0,1-.623-.666" transform="translate(-67.941 -41.038)" fill="#fcfcfc"/><path d="M104.459,44.512a.936.936,0,0,0-.6.215.174.174,0,1,0,.221.27.592.592,0,0,1,.378-.137c.02,0,.04,0,.06,0l.019,0,.039.007.022,0,.035.01.022.007.033.013.02.009.033.017.017.01.039.025.009.006c.015.011.03.023.045.036l.012.011.03.029.015.016.024.028.014.019.021.029.013.02L105,45.2l.011.02c.006.012.012.025.017.038l.007.016c.007.019.014.038.02.057l0,.014c0,.013.007.026.01.04h-.652a.929.929,0,0,0-.928.928,1,1,0,0,0,.972,1.015,1.282,1.282,0,0,0,.624-.17.174.174,0,1,0,.349,0V45.526a1,1,0,0,0-.972-1.014m-.623,1.8a.58.58,0,0,1,.579-.579h.667v1a1.031,1.031,0,0,1-.623.241.646.646,0,0,1-.623-.666" transform="translate(-91.487 -41.038)" fill="#fcfcfc"/><path d="M139.3,23.469a.518.518,0,0,0-.518.518,3.352,3.352,0,1,1-6.7,0v-1.3h2.1a.518.518,0,1,0,0-1.036h-2.1v-1.69a.518.518,0,1,0-1.036,0v4.029a4.388,4.388,0,1,0,8.775,0,.518.518,0,0,0-.518-.518" transform="translate(-115.222 -19.44)" fill="#fcfcfc"/><path d="M164.736,36.409a.517.517,0,0,0,.365-.884.528.528,0,0,0-.078-.064.484.484,0,0,0-.089-.047.534.534,0,0,0-.1-.03.52.52,0,0,0-.2,0,.534.534,0,0,0-.1.03.5.5,0,0,0-.09.047.518.518,0,0,0,.288.949" transform="translate(-143.805 -33.165)" fill="#fcfcfc"/><path d="M179.013,36.409a.518.518,0,0,0,.366-.883.547.547,0,0,0-.079-.065.484.484,0,0,0-.089-.047.532.532,0,0,0-.1-.03.52.52,0,0,0-.2,0,.554.554,0,0,0-.1.03.486.486,0,0,0-.09.047.473.473,0,0,0-.078.065.518.518,0,0,0,.366.883" transform="translate(-156.105 -33.166)" fill="#fcfcfc"/></g></svg>