<svg xmlns="http://www.w3.org/2000/svg" width="35.854" height="35.854" viewBox="0 0 35.854 35.854"><path d="M17.927,0A17.927,17.927,0,1,1,0,17.927,17.927,17.927,0,0,1,17.927,0ZM27.66,11.889a7.859,7.859,0,0,1-2.292.628,4.018,4.018,0,0,0,1.757-2.209,8.04,8.04,0,0,1-2.536.969,4,4,0,0,0-6.906,2.733,4.041,4.041,0,0,0,.1.909,11.338,11.338,0,0,1-8.23-4.174,4,4,0,0,0-.54,2.007h0a3.983,3.983,0,0,0,1.775,3.322,4.013,4.013,0,0,1-1.81-.5v.05a3.992,3.992,0,0,0,3.2,3.915,4.017,4.017,0,0,1-1.053.141,4.182,4.182,0,0,1-.754-.072,4.005,4.005,0,0,0,3.729,2.774,8.032,8.032,0,0,1-5.914,1.653,11.358,11.358,0,0,0,17.485-9.567c0-.175,0-.345-.011-.517a8,8,0,0,0,1.991-2.064l0,0Z" fill="#505459" fill-rule="evenodd"/></svg>