<svg xmlns="http://www.w3.org/2000/svg" width="35.135" height="35.135" viewBox="0 0 35.135 35.135"><g opacity="0.61"><g transform="translate(2.783 12.771)"><path d="M24.045,60.952H21.632l1.508-9.267h2.413ZM19.6,51.685l-2.3,6.374-.272-1.373h0l-.812-4.168a1.033,1.033,0,0,0-1.145-.834h-3.8l-.045.157A9.027,9.027,0,0,1,13.75,52.9l2.1,8.051H18.36L22.2,51.685ZM38.58,60.952H40.8l-1.932-9.268h-1.94a1.109,1.109,0,0,0-1.114.691l-3.6,8.577h2.515l.5-1.377H38.3Zm-2.655-3.278,1.268-3.468.713,3.468ZM32.4,53.913l.344-1.99a6.965,6.965,0,0,0-2.17-.4c-1.2,0-4.041.523-4.041,3.068,0,2.394,3.337,2.424,3.337,3.681s-2.993,1.032-3.981.239l-.359,2.081a6.762,6.762,0,0,0,2.723.523c1.647,0,4.131-.853,4.131-3.173,0-2.41-3.367-2.634-3.367-3.682s2.35-.913,3.383-.344Z" transform="translate(-11.226 -51.519)" fill="#fff"/></g><path d="M17.03,57.188l-.812-4.168a1.033,1.033,0,0,0-1.145-.834h-3.8l-.045.157a9.349,9.349,0,0,1,3.581,1.8A7.226,7.226,0,0,1,17.03,57.188Z" transform="translate(-8.443 -39.249)" fill="#c4bcbc"/><path d="M0,0H35.136V35.135H0Z" fill="none"/></g></svg>